<svg width="315" height="112" viewBox="0 0 315 112" fill="none" xmlns="http://www.w3.org/2000/svg">
<path d="M10.621 89.3678C10.621 65.9045 29.6418 46.8837 53.1052 46.8837V69.5159C53.1052 92.9792 34.0844 112 10.621 112V89.3678Z" fill="#4A3AFF"/>
<path d="M0 23.4419C0 10.4953 10.4953 0 23.4419 0H42.9396C55.8862 0 66.3815 10.4953 66.3815 23.4419C66.3815 36.3884 55.8862 46.8837 42.9396 46.8837H23.4418C10.4953 46.8837 0 36.3884 0 23.4419Z" fill="#4CBFFF"/>
<path d="M97.5242 79.7749C95.0585 79.7749 92.8185 79.254 90.8042 78.2121C88.7899 77.1702 87.1924 75.6248 86.0117 73.5758C84.8656 71.5268 84.2926 68.9743 84.2926 65.9181V64.6158H89.3977V66.8558C89.3977 69.4605 90.1617 71.4921 91.6898 72.9507C93.2179 74.3746 95.1627 75.0865 97.5242 75.0865C99.8858 75.0865 101.831 74.3746 103.359 72.9507C104.887 71.4921 105.651 69.4605 105.651 66.8558V44.3516H110.756V65.9181C110.756 68.9743 110.165 71.5268 108.985 73.5758C107.839 75.6248 106.258 77.1702 104.244 78.2121C102.265 79.254 100.025 79.7749 97.5242 79.7749ZM89.2935 45.3935V40.8093H110.756V45.3935H89.2935ZM121.156 78.8372V40.6009H126.261V78.8372H121.156ZM144.65 78.8372L132.044 61.907H138.034L150.849 78.8372H144.65ZM124.334 65.0847V60.5526H134.544C136.142 60.5526 137.513 60.2226 138.659 59.5628C139.805 58.9029 140.691 58 141.316 56.854C141.941 55.6732 142.254 54.3361 142.254 52.8428C142.254 51.3495 141.941 50.0298 141.316 48.8837C140.691 47.7029 139.805 46.7826 138.659 46.1228C137.513 45.4282 136.142 45.0809 134.544 45.0809H124.334V40.6009H133.606C136.385 40.6009 138.816 41.0177 140.899 41.8512C142.983 42.6847 144.598 43.9696 145.744 45.706C146.89 47.4425 147.463 49.6825 147.463 52.426V53.2595C147.463 56.0031 146.873 58.2431 145.692 59.9795C144.546 61.716 142.931 63.0009 140.847 63.8344C138.798 64.6679 136.385 65.0847 133.606 65.0847H124.334ZM173.548 79.0456V74.3572H183.029C185.321 74.3572 187.353 73.9926 189.124 73.2633C190.93 72.4992 192.458 71.4574 193.708 70.1377C194.993 68.818 195.965 67.2726 196.625 65.5014C197.285 63.7302 197.615 61.8202 197.615 59.7712C197.615 57.618 197.285 55.6732 196.625 53.9367C195.965 52.1656 194.993 50.6375 193.708 49.3526C192.458 48.0329 190.93 47.0257 189.124 46.3312C187.353 45.6366 185.321 45.2893 183.029 45.2893H173.548V40.6009H182.508C185.946 40.6009 188.933 41.1392 191.468 42.2158C194.003 43.2577 196.104 44.6815 197.771 46.4874C199.473 48.2586 200.74 50.2555 201.574 52.4781C202.407 54.666 202.824 56.906 202.824 59.1981V60.3442C202.824 62.5668 202.407 64.7895 201.574 67.0121C200.74 69.2347 199.473 71.249 197.771 73.0549C196.104 74.8608 194.003 76.3194 191.468 77.4307C188.933 78.5073 185.946 79.0456 182.508 79.0456H173.548ZM169.485 79.0456V40.6009H174.59V79.0456H169.485ZM210.691 78.8372V40.8093H215.796V78.8372H210.691ZM214.754 78.8372V74.253H233.195V78.8372H214.754ZM214.754 61.8028V57.2186H231.58V61.8028H214.754ZM214.754 45.3935V40.8093H232.674V45.3935H214.754ZM250.73 78.8372L237.551 40.8093H242.812L254.637 75.5033L252.137 74.253H258.388L255.731 75.5033L266.619 40.8093H271.724L259.482 78.8372H250.73ZM290.544 79.7749C287.384 79.7749 284.693 79.254 282.47 78.2121C280.247 77.1702 278.546 75.729 277.365 73.8884C276.184 72.0478 275.594 69.964 275.594 67.6372H280.699C280.699 68.7833 280.994 69.9293 281.584 71.0753C282.209 72.2214 283.234 73.1764 284.658 73.9405C286.116 74.7045 288.079 75.0865 290.544 75.0865C292.836 75.0865 294.712 74.7566 296.17 74.0967C297.629 73.4022 298.706 72.5166 299.4 71.44C300.095 70.3287 300.442 69.1305 300.442 67.8456C300.442 66.2828 299.765 64.9978 298.41 63.9907C297.056 62.9488 295.076 62.3064 292.472 62.0633L288.252 61.6986C284.884 61.4208 282.192 60.3789 280.178 58.573C278.164 56.7671 277.156 54.3882 277.156 51.4363C277.156 49.1095 277.712 47.0778 278.823 45.3414C279.969 43.605 281.55 42.2505 283.564 41.2781C285.578 40.271 287.922 39.7674 290.596 39.7674C293.236 39.7674 295.563 40.2536 297.577 41.226C299.591 42.1985 301.154 43.5702 302.265 45.3414C303.411 47.0778 303.984 49.1615 303.984 51.5926H298.879C298.879 50.3771 298.584 49.231 297.994 48.1544C297.438 47.0778 296.552 46.1922 295.337 45.4977C294.121 44.8031 292.541 44.4558 290.596 44.4558C288.721 44.4558 287.158 44.7857 285.908 45.4456C284.693 46.1054 283.772 46.9736 283.147 48.0502C282.557 49.0921 282.262 50.2208 282.262 51.4363C282.262 52.8254 282.8 54.0583 283.876 55.1349C284.953 56.2115 286.551 56.8366 288.669 57.0102L292.889 57.3749C295.493 57.5833 297.733 58.1389 299.609 59.0419C301.519 59.9101 302.977 61.0909 303.984 62.5842C305.026 64.0428 305.547 65.7966 305.547 67.8456C305.547 70.1724 304.922 72.2388 303.672 74.0447C302.422 75.8505 300.668 77.2571 298.41 78.2642C296.153 79.2713 293.531 79.7749 290.544 79.7749Z" fill="#170F49"/>
</svg>
