<svg width="119" height="43" viewBox="0 0 119 43" fill="none" xmlns="http://www.w3.org/2000/svg">
<path d="M4 34C4 25.1634 11.1634 18 20 18V18V27C20 35.8366 12.8366 43 4 43V43V34Z" fill="#4A3AFF"/>
<path d="M0 9C0 4.02944 4.02944 0 9 0H16C20.9706 0 25 4.02944 25 9V9C25 13.9706 20.9706 18 16 18H9C4.02944 18 0 13.9706 0 9V9Z" fill="#4CBFFF"/>
<path d="M37.06 30.38C35.9533 30.38 34.9933 30.1733 34.18 29.76C33.38 29.3333 32.76 28.72 32.32 27.92C31.8933 27.12 31.68 26.1467 31.68 25V24.26H34.92V25.18C34.92 25.82 35.1067 26.34 35.48 26.74C35.8667 27.1267 36.3933 27.32 37.06 27.32C37.7133 27.32 38.2267 27.1267 38.6 26.74C38.9867 26.34 39.18 25.82 39.18 25.18V17.86H42.46V25C42.46 26.1467 42.24 27.12 41.8 27.92C41.3733 28.72 40.7533 29.3333 39.94 29.76C39.14 30.1733 38.18 30.38 37.06 30.38ZM33.38 18.26V15.4H42.46V18.26H33.38ZM45.4916 30V15.28H48.7716V30H45.4916ZM54.3516 30L50.0716 23.72H53.6716L58.1516 30H54.3516ZM47.8916 25.32V22.74H51.4916C51.9716 22.74 52.3849 22.6467 52.7316 22.46C53.0916 22.26 53.3649 21.9867 53.5516 21.64C53.7516 21.28 53.8516 20.8667 53.8516 20.4C53.8516 19.9333 53.7516 19.5267 53.5516 19.18C53.3649 18.82 53.0916 18.5467 52.7316 18.36C52.3849 18.16 51.9716 18.06 51.4916 18.06H47.8916V15.28H51.2316C52.4449 15.28 53.4982 15.4667 54.3916 15.84C55.2849 16.2 55.9716 16.74 56.4516 17.46C56.9316 18.18 57.1716 19.0867 57.1716 20.18V20.5C57.1716 21.58 56.9249 22.48 56.4316 23.2C55.9516 23.9067 55.2649 24.44 54.3716 24.8C53.4916 25.1467 52.4449 25.32 51.2316 25.32H47.8916ZM67.1802 30.08V27.02H69.9002C70.5802 27.02 71.1935 26.92 71.7402 26.72C72.2868 26.5067 72.7535 26.2133 73.1402 25.84C73.5268 25.4533 73.8202 24.9933 74.0202 24.46C74.2202 23.9133 74.3202 23.3133 74.3202 22.66C74.3202 21.98 74.2202 21.3733 74.0202 20.84C73.8202 20.3067 73.5268 19.8533 73.1402 19.48C72.7535 19.1067 72.2868 18.8267 71.7402 18.64C71.1935 18.44 70.5802 18.34 69.9002 18.34H67.1802V15.28H69.7202C71.0402 15.28 72.1935 15.4733 73.1802 15.86C74.1668 16.2467 74.9935 16.7733 75.6602 17.44C76.3268 18.1067 76.8202 18.8733 77.1402 19.74C77.4735 20.5933 77.6402 21.4933 77.6402 22.44V22.88C77.6402 23.76 77.4735 24.6333 77.1402 25.5C76.8202 26.3533 76.3268 27.1267 75.6602 27.82C74.9935 28.5 74.1668 29.0467 73.1802 29.46C72.1935 29.8733 71.0402 30.08 69.7202 30.08H67.1802ZM64.3002 30.08V15.28H67.5802V30.08H64.3002ZM79.9252 30V15.4H83.1252V30H79.9252ZM82.7252 30V27.28H89.1052V30H82.7252ZM82.7252 23.94V21.22H88.6452V23.94H82.7252ZM82.7252 18.12V15.4H88.9652V18.12H82.7252ZM95.0202 30L90.5802 15.4H93.9602L97.4802 27.72L96.7202 27.34H98.7602L97.9602 27.72L101.22 15.4H104.5L100.36 30H95.0202ZM111.509 30.38C110.189 30.38 109.076 30.1733 108.169 29.76C107.262 29.3333 106.576 28.76 106.109 28.04C105.642 27.3067 105.409 26.4667 105.409 25.52H108.589C108.589 25.8933 108.689 26.24 108.889 26.56C109.102 26.88 109.422 27.14 109.849 27.34C110.276 27.5267 110.829 27.62 111.509 27.62C112.122 27.62 112.636 27.54 113.049 27.38C113.462 27.22 113.776 27 113.989 26.72C114.202 26.4267 114.309 26.0933 114.309 25.72C114.309 25.2533 114.109 24.8867 113.709 24.62C113.309 24.34 112.662 24.16 111.769 24.08L110.669 23.98C109.216 23.86 108.056 23.4067 107.189 22.62C106.322 21.8333 105.889 20.7933 105.889 19.5C105.889 18.5667 106.109 17.76 106.549 17.08C107.002 16.4 107.629 15.88 108.429 15.52C109.229 15.1467 110.176 14.96 111.269 14.96C112.416 14.96 113.396 15.16 114.209 15.56C115.036 15.9467 115.669 16.5 116.109 17.22C116.549 17.9267 116.769 18.76 116.769 19.72H113.569C113.569 19.36 113.482 19.0333 113.309 18.74C113.136 18.4333 112.876 18.1867 112.529 18C112.196 17.8133 111.776 17.72 111.269 17.72C110.789 17.72 110.382 17.8 110.049 17.96C109.729 18.12 109.489 18.34 109.329 18.62C109.169 18.8867 109.089 19.18 109.089 19.5C109.089 19.9133 109.236 20.2733 109.529 20.58C109.822 20.8867 110.302 21.0667 110.969 21.12L112.089 21.22C113.156 21.3133 114.096 21.5467 114.909 21.92C115.722 22.28 116.356 22.78 116.809 23.42C117.276 24.0467 117.509 24.8133 117.509 25.72C117.509 26.6533 117.262 27.4733 116.769 28.18C116.289 28.8733 115.602 29.4133 114.709 29.8C113.816 30.1867 112.749 30.38 111.509 30.38Z" fill="#170F49"/>
</svg>
