<svg width="1440" height="326" viewBox="0 0 1440 326" fill="none" xmlns="http://www.w3.org/2000/svg">
<path d="M-4 230H1453.26V315.148C1453.26 315.148 1527.09 306.933 1218.64 321.644C910.203 336.355 654.347 309.886 453.607 300.159C252.867 290.432 -4 315.148 -4 315.148V230Z" fill="#46CDCF"/>
<path d="M-3.33181 101H1452.47C1452.47 101 1581.36 255.974 1385.01 293.439C1188.66 330.903 828.473 304.989 675.311 274.33C522.148 243.672 197.627 253.717 39.4098 298.404C-118.807 343.091 -3.33181 101 -3.33181 101Z" fill="#3D84A7"/>
<path d="M1459 101L1.73667 101V11.4176C1.73667 11.4176 -72.0872 20.0604 236.355 4.58316C544.797 -10.8941 800.653 16.9536 1001.39 27.1868C1202.13 37.42 1459 11.4176 1459 11.4176V101Z" fill="#46CDCF"/>
<path d="M1458.33 216L2.53426 216C2.53426 216 -126.364 57.3536 69.9877 19.0012C266.34 -19.3512 626.527 7.1775 779.689 38.5625C932.852 69.9474 1257.37 59.664 1415.59 13.9184C1573.81 -31.8273 1458.33 216 1458.33 216Z" fill="#3D84A7"/>
</svg>
