<svg width="1440" height="150" viewBox="0 0 1440 150" fill="none" xmlns="http://www.w3.org/2000/svg">
<path d="M2.00464 328.119H1443V450.352C1443 450.352 1516 438.559 1211 459.677C906.005 480.795 653.005 442.798 454.505 428.835C256.005 414.872 2.00464 450.352 2.00464 450.352V328.119Z" fill="#46CDCF"/>
<path d="M2.22686 145H1442.23C1442.23 145 1569.73 380.766 1375.5 437.762C1181.28 494.758 825.005 455.333 673.505 408.692C522.005 362.05 201.005 377.333 44.5046 445.316C-111.995 513.299 2.22686 145 2.22686 145Z" fill="#3D84A7"/>
<path d="M1448.3 170.525L7.30493 170.525V19.3534C7.30493 19.3534 -65.6951 33.9382 239.305 7.82008C544.305 -18.298 797.305 28.6955 995.805 45.9642C1194.3 63.2329 1448.3 19.3534 1448.3 19.3534V170.525Z" fill="#46CDCF"/>
<path d="M1448.08 397L8.0835 397C8.0835 397 -119.416 105.414 74.8049 34.9235C269.026 -35.5667 625.305 13.192 776.805 70.8764C928.305 128.561 1249.3 109.66 1405.8 25.5814C1562.31 -58.4973 1448.08 397 1448.08 397Z" fill="#3D84A7"/>
</svg>
