<svg width="100" height="100" viewBox="0 0 100 100" fill="none" xmlns="http://www.w3.org/2000/svg">
<path d="M79.1668 12.5H20.8335C17.5183 12.5 14.3389 13.817 11.9947 16.1612C9.65046 18.5054 8.3335 21.6848 8.3335 25V58.3333C8.3335 61.6485 9.65046 64.828 11.9947 67.1722C14.3389 69.5164 17.5183 70.8333 20.8335 70.8333H45.8335V79.1667H29.1668C28.0618 79.1667 27.002 79.6056 26.2206 80.387C25.4391 81.1685 25.0002 82.2283 25.0002 83.3333C25.0002 84.4384 25.4391 85.4982 26.2206 86.2796C27.002 87.061 28.0618 87.5 29.1668 87.5H70.8335C71.9386 87.5 72.9984 87.061 73.7798 86.2796C74.5612 85.4982 75.0002 84.4384 75.0002 83.3333C75.0002 82.2283 74.5612 81.1685 73.7798 80.387C72.9984 79.6056 71.9386 79.1667 70.8335 79.1667H54.1668V70.8333H79.1668C82.482 70.8333 85.6615 69.5164 88.0057 67.1722C90.3499 64.828 91.6668 61.6485 91.6668 58.3333V25C91.6668 21.6848 90.3499 18.5054 88.0057 16.1612C85.6615 13.817 82.482 12.5 79.1668 12.5ZM83.3335 58.3333C83.3335 59.4384 82.8945 60.4982 82.1131 61.2796C81.3317 62.061 80.2719 62.5 79.1668 62.5H20.8335C19.7284 62.5 18.6686 62.061 17.8872 61.2796C17.1058 60.4982 16.6668 59.4384 16.6668 58.3333V25C16.6668 23.8949 17.1058 22.8351 17.8872 22.0537C18.6686 21.2723 19.7284 20.8333 20.8335 20.8333H79.1668C80.2719 20.8333 81.3317 21.2723 82.1131 22.0537C82.8945 22.8351 83.3335 23.8949 83.3335 25V58.3333Z" fill="#46CDCF"/>
</svg>
