<svg width="1311" height="748" viewBox="0 0 1311 748" fill="none" xmlns="http://www.w3.org/2000/svg">
<g filter="url(#filter0_iiii_51_2684)">
<path d="M0 10C0 4.47715 4.47715 0 10 0H1301C1306.52 0 1311 4.47715 1311 10V53H0V10Z" fill="#191C1F"/>
<path d="M1159.5 34.4736C1164.13 34.4736 1167.97 30.6304 1167.97 26.0068C1167.97 21.375 1164.12 17.54 1159.49 17.54C1154.87 17.54 1151.03 21.375 1151.03 26.0068C1151.03 30.6304 1154.88 34.4736 1159.5 34.4736ZM1159.5 33.0625C1155.58 33.0625 1152.45 29.9248 1152.45 26.0068C1152.45 22.0889 1155.57 18.9512 1159.49 18.9512C1163.41 18.9512 1166.55 22.0889 1166.56 26.0068C1166.56 29.9248 1163.42 33.0625 1159.5 33.0625ZM1159.5 21.7817C1159.14 21.7817 1158.88 22.0391 1158.88 22.4043V26.5547L1158.94 28.3062L1158.11 27.3101L1157.13 26.314C1157.01 26.2061 1156.86 26.1313 1156.69 26.1313C1156.35 26.1313 1156.09 26.397 1156.09 26.729C1156.09 26.9033 1156.14 27.0527 1156.25 27.1606L1159.02 29.9248C1159.18 30.0908 1159.33 30.1572 1159.5 30.1572C1159.68 30.1572 1159.83 30.0825 1159.99 29.9248L1162.75 27.1606C1162.86 27.0527 1162.93 26.9033 1162.93 26.729C1162.93 26.397 1162.66 26.1313 1162.32 26.1313C1162.14 26.1313 1161.99 26.1978 1161.88 26.314L1160.9 27.3101L1160.06 28.3145L1160.12 26.5547V22.4043C1160.12 22.0391 1159.87 21.7817 1159.5 21.7817Z" fill="#999C9F"/>
<path d="M1200.5 28.2646C1200.86 28.2646 1201.16 27.9658 1201.16 27.6172V19.0923L1201.11 17.8472L1201.67 18.4365L1202.92 19.7812C1203.04 19.9141 1203.21 19.9805 1203.37 19.9805C1203.72 19.9805 1203.98 19.7314 1203.98 19.3911C1203.98 19.2168 1203.91 19.084 1203.79 18.9595L1200.98 16.2534C1200.82 16.0874 1200.67 16.0293 1200.5 16.0293C1200.33 16.0293 1200.18 16.0874 1200.02 16.2534L1197.21 18.9595C1197.09 19.084 1197.01 19.2168 1197.01 19.3911C1197.01 19.7314 1197.27 19.9805 1197.61 19.9805C1197.78 19.9805 1197.95 19.9141 1198.07 19.7812L1199.33 18.4365L1199.89 17.8472L1199.84 19.0923V27.6172C1199.84 27.9658 1200.14 28.2646 1200.5 28.2646ZM1195.74 34.7642H1205.26C1206.99 34.7642 1207.86 33.9009 1207.86 32.1909V23.9067C1207.86 22.1968 1206.99 21.3335 1205.26 21.3335H1202.94V22.6699H1205.23C1206.05 22.6699 1206.53 23.1182 1206.53 23.9814V32.1162C1206.53 32.9795 1206.05 33.4277 1205.23 33.4277H1195.75C1194.92 33.4277 1194.47 32.9795 1194.47 32.1162V23.9814C1194.47 23.1182 1194.92 22.6699 1195.75 22.6699H1198.05V21.3335H1195.74C1194 21.3335 1193.13 22.1968 1193.13 23.9067V32.1909C1193.13 33.9009 1194 34.7642 1195.74 34.7642Z" fill="#999C9F"/>
<path d="M1241.5 33.0044C1241.91 33.0044 1242.25 32.6807 1242.25 32.2822V26.7622H1247.61C1248.01 26.7622 1248.35 26.4219 1248.35 26.0151C1248.35 25.6084 1248.01 25.2764 1247.61 25.2764H1242.25V19.748C1242.25 19.3496 1241.91 19.0259 1241.5 19.0259C1241.09 19.0259 1240.76 19.3496 1240.76 19.748V25.2764H1235.39C1234.99 25.2764 1234.65 25.6084 1234.65 26.0151C1234.65 26.4219 1234.99 26.7622 1235.39 26.7622H1240.76V32.2822C1240.76 32.6807 1241.09 33.0044 1241.5 33.0044Z" fill="#999C9F"/>
<path d="M1276.32 30.8711H1277.74V32.1411C1277.74 33.8511 1278.61 34.7144 1280.35 34.7144H1288.68C1290.41 34.7144 1291.28 33.8511 1291.28 32.1411V23.7407C1291.28 22.0308 1290.41 21.1675 1288.68 21.1675H1287.26V19.8975C1287.26 18.1875 1286.38 17.3242 1284.66 17.3242H1276.32C1274.58 17.3242 1273.72 18.1875 1273.72 19.8975V28.2979C1273.72 30.0078 1274.58 30.8711 1276.32 30.8711ZM1276.34 29.5347C1275.51 29.5347 1275.05 29.0864 1275.05 28.2231V19.9722C1275.05 19.1089 1275.51 18.6606 1276.34 18.6606H1284.63C1285.46 18.6606 1285.92 19.1089 1285.92 19.9722V21.1675H1280.35C1278.61 21.1675 1277.74 22.0225 1277.74 23.7407V29.5347H1276.34ZM1280.37 33.3779C1279.54 33.3779 1279.08 32.9297 1279.08 32.0664V23.8154C1279.08 22.9521 1279.54 22.5039 1280.37 22.5039H1288.66C1289.48 22.5039 1289.95 22.9521 1289.95 23.8154V32.0664C1289.95 32.9297 1289.48 33.3779 1288.66 33.3779H1280.37Z" fill="#999C9F"/>
<path d="M153.264 32.9878L146.682 26.563C146.524 26.4053 146.441 26.2144 146.441 26.0068C146.441 25.791 146.532 25.5835 146.69 25.4507L153.264 19.0176C153.405 18.8765 153.588 18.7935 153.804 18.7935C154.235 18.7935 154.559 19.1255 154.559 19.5571C154.559 19.7563 154.476 19.9556 154.343 20.0967L148.3 26.0068L154.343 31.917C154.476 32.0581 154.559 32.249 154.559 32.4565C154.559 32.8882 154.235 33.2119 153.804 33.2119C153.588 33.2119 153.405 33.1289 153.264 32.9878Z" fill="#999C9F"/>
<path d="M180.196 33.2202C180.412 33.2202 180.595 33.1372 180.736 32.9961L187.318 26.563C187.476 26.4053 187.559 26.2144 187.559 26.0068C187.559 25.791 187.476 25.5918 187.318 25.4507L180.744 19.0259C180.595 18.8765 180.412 18.7935 180.196 18.7935C179.765 18.7935 179.441 19.1255 179.441 19.5571C179.441 19.7563 179.524 19.9556 179.657 20.0967L185.7 26.0068L179.657 31.917C179.524 32.0581 179.441 32.249 179.441 32.4565C179.441 32.8882 179.765 33.2202 180.196 33.2202Z" fill="#3D4043"/>
<path d="M101.32 33.6602H115.68C117.423 33.6602 118.287 32.7969 118.287 31.0869V20.9517C118.287 19.2417 117.423 18.3784 115.68 18.3784H101.32C99.585 18.3784 98.7134 19.2334 98.7134 20.9517V31.0869C98.7134 32.8052 99.585 33.6602 101.32 33.6602ZM101.336 32.3237C100.506 32.3237 100.05 31.8838 100.05 31.0205V21.0181C100.05 20.1548 100.506 19.7148 101.336 19.7148H105.039V32.3237H101.336ZM115.664 19.7148C116.485 19.7148 116.95 20.1548 116.95 21.0181V31.0205C116.95 31.8838 116.485 32.3237 115.664 32.3237H106.342V19.7148H115.664ZM103.437 22.7944C103.694 22.7944 103.91 22.5703 103.91 22.3296C103.91 22.0806 103.694 21.8647 103.437 21.8647H101.66C101.411 21.8647 101.187 22.0806 101.187 22.3296C101.187 22.5703 101.411 22.7944 101.66 22.7944H103.437ZM103.437 24.9443C103.694 24.9443 103.91 24.7202 103.91 24.4712C103.91 24.2222 103.694 24.0146 103.437 24.0146H101.66C101.411 24.0146 101.187 24.2222 101.187 24.4712C101.187 24.7202 101.411 24.9443 101.66 24.9443H103.437ZM103.437 27.0859C103.694 27.0859 103.91 26.8784 103.91 26.6294C103.91 26.3804 103.694 26.1646 103.437 26.1646H101.66C101.411 26.1646 101.187 26.3804 101.187 26.6294C101.187 26.8784 101.411 27.0859 101.66 27.0859H103.437Z" fill="#999C9F"/>
<g filter="url(#filter1_i_51_2684)">
<path fill-rule="evenodd" clip-rule="evenodd" d="M27 32C30.3137 32 33 29.3137 33 26C33 22.6863 30.3137 20 27 20C23.6863 20 21 22.6863 21 26C21 29.3137 23.6863 32 27 32Z" fill="#EE6A5F"/>
</g>
<path d="M32.75 26C32.75 29.1756 30.1756 31.75 27 31.75C23.8244 31.75 21.25 29.1756 21.25 26C21.25 22.8244 23.8244 20.25 27 20.25C30.1756 20.25 32.75 22.8244 32.75 26Z" stroke="#CE5347" stroke-width="0.5"/>
<g filter="url(#filter2_i_51_2684)">
<path fill-rule="evenodd" clip-rule="evenodd" d="M47 32C50.3137 32 53 29.3137 53 26C53 22.6863 50.3137 20 47 20C43.6863 20 41 22.6863 41 26C41 29.3137 43.6863 32 47 32Z" fill="#F5BD4F"/>
</g>
<path d="M52.75 26C52.75 29.1756 50.1756 31.75 47 31.75C43.8244 31.75 41.25 29.1756 41.25 26C41.25 22.8244 43.8244 20.25 47 20.25C50.1756 20.25 52.75 22.8244 52.75 26Z" stroke="#D6A243" stroke-width="0.5"/>
<g filter="url(#filter3_i_51_2684)">
<path fill-rule="evenodd" clip-rule="evenodd" d="M67 32C70.3137 32 73 29.3137 73 26C73 22.6863 70.3137 20 67 20C63.6863 20 61 22.6863 61 26C61 29.3137 63.6863 32 67 32Z" fill="#61C454"/>
</g>
<path d="M72.75 26C72.75 29.1756 70.1756 31.75 67 31.75C63.8244 31.75 61.25 29.1756 61.25 26C61.25 22.8244 63.8244 20.25 67 20.25C70.1756 20.25 72.75 22.8244 72.75 26Z" stroke="#58A942" stroke-width="0.5"/>
<g clip-path="url(#clip0_51_2684)">
<path d="M364.734 34.6147C364.867 34.6147 365.083 34.5649 365.291 34.4487C370.014 31.8008 371.632 30.6802 371.632 27.6504V21.3003C371.632 20.4287 371.259 20.1548 370.553 19.856C369.574 19.4492 366.411 18.312 365.432 17.9717C365.208 17.897 364.967 17.8472 364.734 17.8472C364.502 17.8472 364.261 17.9136 364.045 17.9717C363.066 18.2539 359.895 19.4575 358.916 19.856C358.218 20.1465 357.836 20.4287 357.836 21.3003V27.6504C357.836 30.6802 359.463 31.7925 364.178 34.4487C364.394 34.5649 364.602 34.6147 364.734 34.6147ZM365.066 19.2583C366.32 19.7563 368.752 20.6362 370.039 21.0762C370.263 21.1592 370.312 21.2754 370.312 21.5576V27.3433C370.312 29.9082 369.084 30.5806 365.249 32.9131C365.008 33.0625 364.875 33.104 364.743 33.1123V19.1836C364.826 19.1836 364.934 19.2085 365.066 19.2583Z" fill="#999C9F"/>
<path d="M390.234 18C390.234 14.6863 392.921 12 396.234 12H915.234C918.548 12 921.234 14.6863 921.234 18V34C921.234 37.3137 918.548 40 915.234 40H396.234C392.921 40 390.234 37.3137 390.234 34V18Z" fill="#0C0F12"/>
<g clip-path="url(#clip1_51_2684)">
<path d="M614.945 31.7158H620.523C621.279 31.7158 621.648 31.3408 621.648 30.5205V26.2197C621.648 25.4814 621.344 25.1006 620.717 25.0361V23.5596C620.717 21.3506 619.27 20.2842 617.734 20.2842C616.199 20.2842 614.752 21.3506 614.752 23.5596V25.0654C614.178 25.1533 613.82 25.5283 613.82 26.2197V30.5205C613.82 31.3408 614.189 31.7158 614.945 31.7158ZM615.695 23.4365C615.695 21.9658 616.639 21.1865 617.734 21.1865C618.83 21.1865 619.773 21.9658 619.773 23.4365V25.0303L615.695 25.0361V23.4365Z" fill="#DBDBDC"/>
<path d="M629.286 22.719C629.061 22.719 628.87 22.641 628.714 22.485C628.567 22.329 628.493 22.1383 628.493 21.913C628.493 21.6877 628.567 21.497 628.714 21.341C628.87 21.185 629.061 21.107 629.286 21.107C629.512 21.107 629.698 21.185 629.845 21.341C630.001 21.497 630.079 21.6877 630.079 21.913C630.079 22.1383 630.001 22.329 629.845 22.485C629.698 22.641 629.512 22.719 629.286 22.719ZM629.871 32.547C629.871 33.1797 629.711 33.6433 629.39 33.938C629.07 34.2327 628.602 34.38 627.986 34.38H627.297V33.379H627.791C628.121 33.379 628.35 33.314 628.48 33.184C628.619 33.054 628.688 32.833 628.688 32.521V23.876H629.871V32.547ZM633.005 25.033C633.213 24.6257 633.508 24.3093 633.889 24.084C634.279 23.8587 634.751 23.746 635.306 23.746V24.968H634.994C633.668 24.968 633.005 25.6873 633.005 27.126V31H631.822V23.876H633.005V25.033ZM636.178 27.412C636.178 26.684 636.325 26.047 636.62 25.501C636.914 24.9463 637.317 24.5173 637.829 24.214C638.349 23.9107 638.929 23.759 639.571 23.759C640.125 23.759 640.641 23.889 641.118 24.149C641.594 24.4003 641.958 24.734 642.21 25.15V21.38H643.406V31H642.21V29.661C641.976 30.0857 641.629 30.4367 641.17 30.714C640.71 30.9827 640.173 31.117 639.558 31.117C638.925 31.117 638.349 30.961 637.829 30.649C637.317 30.337 636.914 29.8993 636.62 29.336C636.325 28.7727 636.178 28.1313 636.178 27.412ZM642.21 27.425C642.21 26.8877 642.101 26.4197 641.885 26.021C641.668 25.6223 641.373 25.319 641.001 25.111C640.637 24.8943 640.234 24.786 639.792 24.786C639.35 24.786 638.947 24.89 638.583 25.098C638.219 25.306 637.928 25.6093 637.712 26.008C637.495 26.4067 637.387 26.8747 637.387 27.412C637.387 27.958 637.495 28.4347 637.712 28.842C637.928 29.2407 638.219 29.5483 638.583 29.765C638.947 29.973 639.35 30.077 639.792 30.077C640.234 30.077 640.637 29.973 641.001 29.765C641.373 29.5483 641.668 29.2407 641.885 28.842C642.101 28.4347 642.21 27.9623 642.21 27.425ZM651.853 27.165C651.853 27.3903 651.84 27.6287 651.814 27.88H646.12C646.163 28.582 646.401 29.1323 646.835 29.531C647.277 29.921 647.81 30.116 648.434 30.116C648.945 30.116 649.37 29.999 649.708 29.765C650.054 29.5223 650.297 29.2017 650.436 28.803H651.71C651.519 29.4877 651.138 30.0467 650.566 30.48C649.994 30.9047 649.283 31.117 648.434 31.117C647.758 31.117 647.151 30.9653 646.614 30.662C646.085 30.3587 645.669 29.9297 645.366 29.375C645.062 28.8117 644.911 28.1617 644.911 27.425C644.911 26.6883 645.058 26.0427 645.353 25.488C645.647 24.9333 646.059 24.5087 646.588 24.214C647.125 23.9107 647.74 23.759 648.434 23.759C649.11 23.759 649.708 23.9063 650.228 24.201C650.748 24.4957 651.146 24.903 651.424 25.423C651.71 25.9343 651.853 26.515 651.853 27.165ZM650.631 26.918C650.631 26.4673 650.531 26.0817 650.332 25.761C650.132 25.4317 649.859 25.1847 649.513 25.02C649.175 24.8467 648.798 24.76 648.382 24.76C647.784 24.76 647.272 24.9507 646.848 25.332C646.432 25.7133 646.193 26.242 646.133 26.918H650.631ZM656.014 29.908L658.224 23.876H659.485L656.69 31H655.312L652.517 23.876H653.791L656.014 29.908ZM663.119 31.117C662.573 31.117 662.084 31.026 661.65 30.844C661.217 30.6533 660.875 30.3933 660.623 30.064C660.372 29.726 660.233 29.3403 660.207 28.907H661.429C661.464 29.2623 661.629 29.5527 661.923 29.778C662.227 30.0033 662.621 30.116 663.106 30.116C663.557 30.116 663.912 30.0163 664.172 29.817C664.432 29.6177 664.562 29.3663 664.562 29.063C664.562 28.751 664.424 28.5213 664.146 28.374C663.869 28.218 663.44 28.0663 662.859 27.919C662.331 27.7803 661.897 27.6417 661.559 27.503C661.23 27.3557 660.944 27.1433 660.701 26.866C660.467 26.58 660.35 26.2073 660.35 25.748C660.35 25.384 660.459 25.0503 660.675 24.747C660.892 24.4437 661.2 24.2053 661.598 24.032C661.997 23.85 662.452 23.759 662.963 23.759C663.752 23.759 664.389 23.9583 664.874 24.357C665.36 24.7557 665.62 25.3017 665.654 25.995H664.471C664.445 25.6223 664.294 25.3233 664.016 25.098C663.748 24.8727 663.384 24.76 662.924 24.76C662.5 24.76 662.162 24.851 661.91 25.033C661.659 25.215 661.533 25.4533 661.533 25.748C661.533 25.982 661.607 26.177 661.754 26.333C661.91 26.4803 662.101 26.6017 662.326 26.697C662.56 26.7837 662.881 26.8833 663.288 26.996C663.8 27.1347 664.216 27.2733 664.536 27.412C664.857 27.542 665.13 27.7413 665.355 28.01C665.589 28.2787 665.711 28.6297 665.719 29.063C665.719 29.453 665.611 29.804 665.394 30.116C665.178 30.428 664.87 30.675 664.471 30.857C664.081 31.0303 663.631 31.117 663.119 31.117ZM667.714 31.078C667.489 31.078 667.298 31 667.142 30.844C666.986 30.688 666.908 30.4973 666.908 30.272C666.908 30.0467 666.986 29.856 667.142 29.7C667.298 29.544 667.489 29.466 667.714 29.466C667.931 29.466 668.113 29.544 668.26 29.7C668.416 29.856 668.494 30.0467 668.494 30.272C668.494 30.4973 668.416 30.688 668.26 30.844C668.113 31 667.931 31.078 667.714 31.078ZM669.573 27.425C669.573 26.6883 669.72 26.047 670.015 25.501C670.31 24.9463 670.717 24.5173 671.237 24.214C671.766 23.9107 672.368 23.759 673.044 23.759C673.919 23.759 674.639 23.9713 675.202 24.396C675.774 24.8207 676.151 25.41 676.333 26.164H675.059C674.938 25.7307 674.699 25.3883 674.344 25.137C673.997 24.8857 673.564 24.76 673.044 24.76C672.368 24.76 671.822 24.994 671.406 25.462C670.99 25.9213 670.782 26.5757 670.782 27.425C670.782 28.283 670.99 28.946 671.406 29.414C671.822 29.882 672.368 30.116 673.044 30.116C673.564 30.116 673.997 29.9947 674.344 29.752C674.691 29.5093 674.929 29.1627 675.059 28.712H676.333C676.142 29.44 675.761 30.025 675.189 30.467C674.617 30.9003 673.902 31.117 673.044 31.117C672.368 31.117 671.766 30.9653 671.237 30.662C670.717 30.3587 670.31 29.9297 670.015 29.375C669.72 28.8203 669.573 28.1703 669.573 27.425ZM680.966 31.117C680.299 31.117 679.692 30.9653 679.146 30.662C678.609 30.3587 678.184 29.9297 677.872 29.375C677.569 28.8117 677.417 28.1617 677.417 27.425C677.417 26.697 677.573 26.0557 677.885 25.501C678.206 24.9377 678.639 24.5087 679.185 24.214C679.731 23.9107 680.342 23.759 681.018 23.759C681.694 23.759 682.305 23.9107 682.851 24.214C683.397 24.5087 683.826 24.9333 684.138 25.488C684.459 26.0427 684.619 26.6883 684.619 27.425C684.619 28.1617 684.455 28.8117 684.125 29.375C683.805 29.9297 683.367 30.3587 682.812 30.662C682.258 30.9653 681.642 31.117 680.966 31.117ZM680.966 30.077C681.391 30.077 681.79 29.9773 682.162 29.778C682.535 29.5787 682.834 29.2797 683.059 28.881C683.293 28.4823 683.41 27.997 683.41 27.425C683.41 26.853 683.298 26.3677 683.072 25.969C682.847 25.5703 682.552 25.2757 682.188 25.085C681.824 24.8857 681.43 24.786 681.005 24.786C680.572 24.786 680.173 24.8857 679.809 25.085C679.454 25.2757 679.168 25.5703 678.951 25.969C678.735 26.3677 678.626 26.853 678.626 27.425C678.626 28.0057 678.73 28.4953 678.938 28.894C679.155 29.2927 679.441 29.5917 679.796 29.791C680.152 29.9817 680.542 30.077 680.966 30.077ZM694.69 23.746C695.245 23.746 695.739 23.863 696.172 24.097C696.605 24.3223 696.948 24.6647 697.199 25.124C697.45 25.5833 697.576 26.1423 697.576 26.801V31H696.406V26.97C696.406 26.2593 696.228 25.7177 695.873 25.345C695.526 24.9637 695.054 24.773 694.456 24.773C693.841 24.773 693.351 24.9723 692.987 25.371C692.623 25.761 692.441 26.3287 692.441 27.074V31H691.271V26.97C691.271 26.2593 691.093 25.7177 690.738 25.345C690.391 24.9637 689.919 24.773 689.321 24.773C688.706 24.773 688.216 24.9723 687.852 25.371C687.488 25.761 687.306 26.3287 687.306 27.074V31H686.123V23.876H687.306V24.903C687.54 24.5303 687.852 24.2443 688.242 24.045C688.641 23.8457 689.078 23.746 689.555 23.746C690.153 23.746 690.682 23.8803 691.141 24.149C691.6 24.4177 691.943 24.812 692.168 25.332C692.367 24.8293 692.697 24.4393 693.156 24.162C693.615 23.8847 694.127 23.746 694.69 23.746Z" fill="white"/>
</g>
<path d="M909.518 25.6152C909.664 25.6152 909.775 25.5684 909.857 25.4805L912.271 23.0547C912.377 22.9551 912.418 22.8379 912.418 22.7031C912.418 22.5742 912.365 22.4453 912.271 22.3516L909.857 19.9023C909.775 19.8086 909.658 19.7617 909.518 19.7617C909.254 19.7617 909.055 19.9727 909.055 20.2422C909.055 20.3652 909.102 20.4824 909.184 20.5762L910.748 22.1113C910.414 22.0527 910.074 22.0176 909.734 22.0176C906.863 22.0176 904.555 24.3203 904.555 27.1914C904.555 30.0684 906.863 32.377 909.734 32.377C912.605 32.377 914.908 30.0684 914.908 27.1914C914.908 26.9102 914.709 26.7051 914.422 26.7051C914.146 26.7051 913.965 26.9102 913.965 27.1914C913.965 29.5469 912.084 31.4336 909.734 31.4336C907.385 31.4336 905.498 29.5469 905.498 27.1914C905.498 24.8418 907.385 22.9609 909.734 22.9609C910.18 22.9609 910.59 22.9961 910.941 23.0723L909.189 24.8125C909.102 24.9062 909.055 25.0234 909.055 25.1465C909.055 25.416 909.254 25.6152 909.518 25.6152Z" fill="#DBDBDC"/>
</g>
</g>
<path d="M0.5 53.5H1310.5V738C1310.5 743.247 1306.25 747.5 1301 747.5H10C4.75332 747.5 0.5 743.247 0.5 738V53.5Z" stroke="#989CA0"/>
<defs>
<filter id="filter0_iiii_51_2684" x="0" y="0" width="1311" height="53" filterUnits="userSpaceOnUse" color-interpolation-filters="sRGB">
<feFlood flood-opacity="0" result="BackgroundImageFix"/>
<feBlend mode="normal" in="SourceGraphic" in2="BackgroundImageFix" result="shape"/>
<feColorMatrix in="SourceAlpha" type="matrix" values="0 0 0 0 0 0 0 0 0 0 0 0 0 0 0 0 0 0 127 0" result="hardAlpha"/>
<feOffset dx="1"/>
<feComposite in2="hardAlpha" operator="arithmetic" k2="-1" k3="1"/>
<feColorMatrix type="matrix" values="0 0 0 0 0.278431 0 0 0 0 0.286275 0 0 0 0 0.298039 0 0 0 1 0"/>
<feBlend mode="normal" in2="shape" result="effect1_innerShadow_51_2684"/>
<feColorMatrix in="SourceAlpha" type="matrix" values="0 0 0 0 0 0 0 0 0 0 0 0 0 0 0 0 0 0 127 0" result="hardAlpha"/>
<feOffset dx="-1"/>
<feComposite in2="hardAlpha" operator="arithmetic" k2="-1" k3="1"/>
<feColorMatrix type="matrix" values="0 0 0 0 0.278431 0 0 0 0 0.286275 0 0 0 0 0.294118 0 0 0 1 0"/>
<feBlend mode="normal" in2="effect1_innerShadow_51_2684" result="effect2_innerShadow_51_2684"/>
<feColorMatrix in="SourceAlpha" type="matrix" values="0 0 0 0 0 0 0 0 0 0 0 0 0 0 0 0 0 0 127 0" result="hardAlpha"/>
<feOffset dy="1"/>
<feComposite in2="hardAlpha" operator="arithmetic" k2="-1" k3="1"/>
<feColorMatrix type="matrix" values="0 0 0 0 1 0 0 0 0 1 0 0 0 0 1 0 0 0 0.4 0"/>
<feBlend mode="normal" in2="effect2_innerShadow_51_2684" result="effect3_innerShadow_51_2684"/>
<feColorMatrix in="SourceAlpha" type="matrix" values="0 0 0 0 0 0 0 0 0 0 0 0 0 0 0 0 0 0 127 0" result="hardAlpha"/>
<feOffset dy="0.5"/>
<feComposite in2="hardAlpha" operator="arithmetic" k2="-1" k3="1"/>
<feColorMatrix type="matrix" values="0 0 0 0 1 0 0 0 0 1 0 0 0 0 1 0 0 0 0.4 0"/>
<feBlend mode="normal" in2="effect3_innerShadow_51_2684" result="effect4_innerShadow_51_2684"/>
</filter>
<filter id="filter1_i_51_2684" x="21" y="20" width="12" height="12" filterUnits="userSpaceOnUse" color-interpolation-filters="sRGB">
<feFlood flood-opacity="0" result="BackgroundImageFix"/>
<feBlend mode="normal" in="SourceGraphic" in2="BackgroundImageFix" result="shape"/>
<feColorMatrix in="SourceAlpha" type="matrix" values="0 0 0 0 0 0 0 0 0 0 0 0 0 0 0 0 0 0 127 0" result="hardAlpha"/>
<feOffset/>
<feGaussianBlur stdDeviation="3"/>
<feComposite in2="hardAlpha" operator="arithmetic" k2="-1" k3="1"/>
<feColorMatrix type="matrix" values="0 0 0 0 0.92549 0 0 0 0 0.427451 0 0 0 0 0.384314 0 0 0 1 0"/>
<feBlend mode="normal" in2="shape" result="effect1_innerShadow_51_2684"/>
</filter>
<filter id="filter2_i_51_2684" x="41" y="20" width="12" height="12" filterUnits="userSpaceOnUse" color-interpolation-filters="sRGB">
<feFlood flood-opacity="0" result="BackgroundImageFix"/>
<feBlend mode="normal" in="SourceGraphic" in2="BackgroundImageFix" result="shape"/>
<feColorMatrix in="SourceAlpha" type="matrix" values="0 0 0 0 0 0 0 0 0 0 0 0 0 0 0 0 0 0 127 0" result="hardAlpha"/>
<feOffset/>
<feGaussianBlur stdDeviation="3"/>
<feComposite in2="hardAlpha" operator="arithmetic" k2="-1" k3="1"/>
<feColorMatrix type="matrix" values="0 0 0 0 0.960784 0 0 0 0 0.768627 0 0 0 0 0.317647 0 0 0 1 0"/>
<feBlend mode="normal" in2="shape" result="effect1_innerShadow_51_2684"/>
</filter>
<filter id="filter3_i_51_2684" x="61" y="20" width="12" height="12" filterUnits="userSpaceOnUse" color-interpolation-filters="sRGB">
<feFlood flood-opacity="0" result="BackgroundImageFix"/>
<feBlend mode="normal" in="SourceGraphic" in2="BackgroundImageFix" result="shape"/>
<feColorMatrix in="SourceAlpha" type="matrix" values="0 0 0 0 0 0 0 0 0 0 0 0 0 0 0 0 0 0 127 0" result="hardAlpha"/>
<feOffset/>
<feGaussianBlur stdDeviation="3"/>
<feComposite in2="hardAlpha" operator="arithmetic" k2="-1" k3="1"/>
<feColorMatrix type="matrix" values="0 0 0 0 0.407843 0 0 0 0 0.8 0 0 0 0 0.345098 0 0 0 1 0"/>
<feBlend mode="normal" in2="shape" result="effect1_innerShadow_51_2684"/>
</filter>
<clipPath id="clip0_51_2684">
<rect width="614.531" height="28" fill="white" transform="translate(348.234 12)"/>
</clipPath>
<clipPath id="clip1_51_2684">
<rect x="613.82" y="16" width="84.8281" height="20" fill="white"/>
</clipPath>
</defs>
</svg>
