<svg width="601" height="479" viewBox="0 0 601 479" fill="none" xmlns="http://www.w3.org/2000/svg">
<g clip-path="url(#clip0_55_2720)">
<path d="M159.518 109.909L88.0234 100.377L102.492 27.1054L179.295 42.271L159.518 109.909Z" fill="#2F2E41"/>
<path d="M90.7925 426.896V124.623C90.7925 119.145 95.2486 114.688 100.727 114.688H591.066C596.544 114.688 601 119.145 601 124.623V426.896C601 432.374 596.544 436.83 591.066 436.83H100.727C95.2486 436.83 90.7925 432.374 90.7925 426.896ZM599.201 124.623C599.201 120.13 595.559 116.488 591.066 116.488H100.727C96.2341 116.488 92.5922 120.13 92.5922 124.623V426.896C92.5922 431.389 96.2341 435.03 100.727 435.03H449.257C532.069 435.03 599.201 367.899 599.201 285.087V124.623Z" fill="#3F3D56"/>
<path d="M551.355 159.947L543.949 156.439C546.987 160.678 549.604 167.298 551.005 172.566C553.378 167.659 557.202 161.655 560.988 158.068L553.161 160.081C557.984 136.445 576.124 119.476 596.897 119.476L597.191 118.622C575.493 118.622 556.279 135.356 551.355 159.947V159.947Z" fill="#3F3D56"/>
<path d="M585.44 195.962H538.648C536.664 195.962 535.049 194.347 535.049 192.363C535.049 190.378 536.664 188.763 538.648 188.763H585.44C587.425 188.763 589.039 190.378 589.039 192.363C589.039 194.347 587.425 195.962 585.44 195.962Z" fill="#6C63FF"/>
<path d="M446.514 222.996V318.379C446.514 326.814 439.652 333.676 431.217 333.676H335.834C327.399 333.676 320.537 326.814 320.537 318.379V222.996C320.537 214.561 327.399 207.699 335.834 207.699H431.217C439.652 207.699 446.514 214.561 446.514 222.996ZM425.299 331.876C436.022 331.876 444.714 323.184 444.714 312.462V270.291C444.714 236.716 417.497 209.498 383.922 209.498H335.834C328.379 209.498 322.336 215.541 322.336 222.996V305.071C322.336 319.875 334.338 331.876 349.142 331.876H425.299Z" fill="#3F3D56"/>
<path d="M396.222 246.655H365.429C364.653 246.655 364.021 246.023 364.021 245.247C364.021 244.47 364.653 243.839 365.429 243.839H396.222C396.999 243.839 397.63 244.47 397.63 245.247C397.63 246.023 396.999 246.655 396.222 246.655V246.655Z" fill="#3F3D56"/>
<path d="M396.222 276.676H365.429C364.653 276.676 364.021 276.045 364.021 275.268C364.021 274.492 364.653 273.861 365.429 273.861H396.222C396.999 273.861 397.63 274.492 397.63 275.268C397.63 276.045 396.999 276.676 396.222 276.676V276.676Z" fill="#3F3D56"/>
<path d="M380.925 318.069H350.132C349.355 318.069 348.724 317.437 348.724 316.661C348.724 315.885 349.355 315.253 350.132 315.253H380.925C381.701 315.253 382.332 315.885 382.332 316.661C382.332 317.437 381.701 318.069 380.925 318.069V318.069Z" fill="#3F3D56"/>
<path d="M412.746 261.675H348.906C348.129 261.675 347.498 261.044 347.498 260.267C347.498 259.491 348.129 258.86 348.906 258.86H412.746C413.523 258.86 414.154 259.491 414.154 260.267C414.154 261.044 413.523 261.675 412.746 261.675V261.675Z" fill="#3F3D56"/>
<path d="M165.228 272.309H59.6992C68.5444 252.571 73.9824 233.774 65.4815 218.822L165.228 213.039C160.243 233.224 159.634 253.033 165.228 272.309Z" fill="#FFB6B6"/>
<path d="M201.573 436.83H123.992C123.431 436.83 122.919 436.51 122.674 436.005L122.202 435.03L111.892 413.868C111.229 412.506 109.186 412.925 109.113 414.439L108.119 435.03L108.099 435.439C108.06 436.218 107.417 436.83 106.636 436.83H30.2523C29.4805 436.83 28.8406 436.23 28.79 435.46C28.7806 435.316 28.7714 435.173 28.7628 435.03C23.8856 359.759 41.4235 308.738 51.7086 285.909L51.7176 285.9C55.7579 276.92 58.6914 272.304 58.6914 272.304L59.7082 272.295H59.7172L80.2604 271.935H80.2694L98.4642 271.629L112.214 271.404L117.73 271.305H117.739L121.194 271.251L138.372 270.954L153.714 270.693L164.728 270.513H165.034L166.672 277.577V277.586L166.735 277.901V277.91L167.014 279.071L167.023 279.107L167.581 281.545V281.563L167.617 281.698V281.707L167.752 282.292L167.761 282.319L169.056 287.925L171.153 297.04L173.916 308.963L177.398 324.098L179.162 331.72L181.582 342.221L202.998 435.03C203.214 435.95 202.517 436.83 201.573 436.83H201.573Z" fill="#2F2E41"/>
<path d="M149.993 96.5381L107.996 95.0727L91.3959 117.333L82.6611 119.23C69.5674 122.073 60.5853 134.15 61.6287 147.508L65.5966 240.054L67.3963 250.852L166.378 267.049L188.635 126.991L159.349 116.47L149.993 96.5381Z" fill="#6C63FF"/>
<path d="M134.667 93.0277C155.486 93.0277 172.363 76.1503 172.363 55.3311C172.363 34.5118 155.486 17.6344 134.667 17.6344C113.848 17.6344 96.9702 34.5118 96.9702 55.3311C96.9702 76.1503 113.848 93.0277 134.667 93.0277Z" fill="#FFB6B6"/>
<path d="M554.466 433.33L521.785 421.185C516.883 419.363 514.378 413.893 516.199 408.992L548.306 322.598C550.128 317.697 555.598 315.191 560.499 317.012L593.18 329.158C598.082 330.979 600.588 336.449 598.766 341.351C586.481 376.27 573.081 415.506 566.659 427.744C564.838 432.646 559.368 435.152 554.466 433.33Z" fill="#3F3D56"/>
<path d="M590.716 364.409C590.508 364.332 590.277 364.438 590.2 364.645L585.727 376.68C585.65 376.887 585.756 377.118 585.964 377.196C586.171 377.273 586.402 377.167 586.479 376.959L590.952 364.925C591.029 364.717 590.923 364.486 590.716 364.409Z" fill="#3F3D56"/>
<path d="M597.92 341.037L565.814 427.428C564.228 431.695 559.61 433.951 555.311 432.661L555.309 432.66C555.245 432.641 555.182 432.622 555.117 432.6C555.004 432.564 554.893 432.525 554.78 432.483C554.78 432.483 554.377 432.299 553.642 431.962C552.9 431.622 551.82 431.124 550.476 430.498C550.072 430.312 549.647 430.113 549.198 429.904C548.305 429.486 547.324 429.027 546.274 428.53C545.855 428.334 545.422 428.128 544.98 427.919C542.719 426.85 540.191 425.642 537.532 424.35C537.081 424.134 536.628 423.914 536.172 423.691C536.052 423.631 516.671 410.313 517.046 409.305L549.152 322.913C550.803 318.469 555.742 316.207 560.186 317.858L564.988 319.643C565.755 319.928 566.15 320.755 565.931 321.545C565.918 321.598 565.905 321.651 565.895 321.705C565.749 322.526 566.255 323.324 567.037 323.614L583.917 329.888C584.7 330.178 585.604 329.905 586.029 329.187C586.057 329.14 586.082 329.091 586.106 329.043C586.456 328.302 587.295 327.933 588.063 328.218L592.865 330.003C597.308 331.654 599.571 336.593 597.92 341.037V341.037Z" fill="#6C63FF"/>
<path d="M542.966 336.391C542.759 336.314 542.527 336.42 542.45 336.628L541.332 339.636C541.255 339.844 541.361 340.075 541.569 340.152C541.776 340.229 542.007 340.123 542.084 339.916L543.203 336.907C543.28 336.7 543.174 336.468 542.966 336.391Z" fill="#3F3D56"/>
<path d="M539.612 345.417C539.404 345.34 539.173 345.446 539.096 345.653L536.93 351.483C536.853 351.69 536.959 351.921 537.166 351.998C537.373 352.075 537.605 351.969 537.682 351.762L539.848 345.933C539.925 345.725 539.819 345.494 539.612 345.417Z" fill="#3F3D56"/>
<path d="M536.537 353.691C536.33 353.614 536.098 353.72 536.021 353.927L533.855 359.756C533.778 359.964 533.884 360.195 534.091 360.272C534.299 360.349 534.53 360.243 534.607 360.036L536.773 354.207C536.851 353.999 536.745 353.768 536.537 353.691Z" fill="#3F3D56"/>
<path d="M564.366 320.91L557.178 318.239C557.138 318.224 557.093 318.245 557.078 318.285L556.783 319.08C556.768 319.12 556.789 319.164 556.829 319.179L564.017 321.851C564.057 321.866 564.102 321.845 564.117 321.805L564.412 321.01C564.427 320.97 564.406 320.925 564.366 320.91Z" fill="#E6E6E6"/>
<path d="M588.692 330.967C589.135 330.967 589.494 330.608 589.494 330.165C589.494 329.722 589.135 329.362 588.692 329.362C588.249 329.362 587.889 329.722 587.889 330.165C587.889 330.608 588.249 330.967 588.692 330.967Z" fill="#E6E6E6"/>
<path d="M590.76 331.736C591.203 331.736 591.563 331.377 591.563 330.933C591.563 330.49 591.203 330.131 590.76 330.131C590.317 330.131 589.958 330.49 589.958 330.933C589.958 331.377 590.317 331.736 590.76 331.736Z" fill="#E6E6E6"/>
<path d="M592.829 332.505C593.272 332.505 593.631 332.145 593.631 331.702C593.631 331.259 593.272 330.9 592.829 330.9C592.386 330.9 592.026 331.259 592.026 331.702C592.026 332.145 592.386 332.505 592.829 332.505Z" fill="#E6E6E6"/>
<path d="M474.338 160.525H446.117C442.486 160.525 439.531 157.571 439.531 153.94V122.119C439.531 118.488 442.486 115.533 446.117 115.533H474.338C477.969 115.533 480.924 118.488 480.924 122.119V153.94C480.924 157.571 477.969 160.525 474.338 160.525Z" fill="white"/>
<path d="M474.338 160.525H446.117C442.486 160.525 439.531 157.571 439.531 153.94C438.112 142.222 437.721 131.31 439.531 122.119C439.531 118.488 442.486 115.533 446.117 115.533H474.338C477.969 115.533 480.924 118.488 480.924 122.119V153.94C480.924 157.571 477.969 160.525 474.338 160.525V160.525ZM446.117 116.433C442.982 116.433 440.431 118.984 440.431 122.119V153.94C440.431 157.075 442.982 159.626 446.117 159.626H474.338C477.473 159.626 480.024 157.075 480.024 153.94V122.119C480.024 118.984 477.473 116.433 474.338 116.433H446.117Z" fill="#3F3D56"/>
<path d="M471.486 134.88H448.233C447.247 134.88 446.444 134.078 446.444 133.091C446.444 132.105 447.247 131.303 448.233 131.303H471.486C472.472 131.303 473.275 132.105 473.275 133.091C473.275 134.078 472.472 134.88 471.486 134.88Z" fill="#6C63FF"/>
<path d="M471.486 144.778H448.233C447.247 144.778 446.444 143.976 446.444 142.99C446.444 142.003 447.247 141.201 448.233 141.201H471.486C472.472 141.201 473.275 142.003 473.275 142.99C473.275 143.976 472.472 144.778 471.486 144.778Z" fill="#6C63FF"/>
<path d="M471.486 124.982H448.233C447.247 124.982 446.444 124.179 446.444 123.193C446.444 122.207 447.247 121.404 448.233 121.404H471.486C472.472 121.404 473.275 122.207 473.275 123.193C473.275 124.179 472.472 124.982 471.486 124.982Z" fill="#6C63FF"/>
<path d="M121.849 104.763C123.915 108.658 126.689 111.762 129.63 113.771L146.964 152.109L164.966 143.327L145.444 105.382C145.43 101.821 144.415 97.783 142.35 93.8889C137.631 84.993 129.216 80.2159 123.555 83.2188C117.894 86.2217 117.13 95.8676 121.849 104.763L121.849 104.763Z" fill="#FFB6B6"/>
<path d="M160.882 128.929C160.882 128.929 187.284 115.093 195.476 129.62C202.466 142.015 207.516 204.038 208.848 221.98C209.082 225.129 208.26 228.256 206.512 230.886V230.886C201.334 238.674 190.172 239.417 184.009 232.383L130.508 127.042L155.886 114.981L162.092 130.013L160.882 128.929V128.929Z" fill="#6C63FF"/>
<path d="M217.329 277.332C217.909 276.51 218.25 275.509 218.25 274.427V182.109C218.25 179.324 215.992 177.065 213.206 177.065H73.6594C70.8735 177.065 68.6152 179.324 68.6152 182.109V274.427C68.6152 275.509 68.9568 276.51 69.5364 277.332H52.1079V282.171C112.703 285.56 173.586 285.56 234.758 282.171V277.332H217.329Z" fill="#3F3D56"/>
<path d="M367.257 478.168H339.036C335.405 478.168 332.451 475.214 332.451 471.582V439.762C332.451 436.131 335.405 433.176 339.036 433.176H367.257C370.889 433.176 373.843 436.131 373.843 439.762V471.582C373.843 475.214 370.889 478.168 367.257 478.168Z" fill="white"/>
<path d="M367.257 478.168H339.036C335.405 478.168 332.451 475.214 332.451 471.582C331.032 459.865 330.641 448.953 332.451 439.762C332.451 436.131 335.405 433.176 339.036 433.176H367.257C370.889 433.176 373.843 436.131 373.843 439.762V471.582C373.843 475.214 370.889 478.168 367.257 478.168ZM339.036 434.076C335.901 434.076 333.35 436.627 333.35 439.762V471.582C333.35 474.718 335.901 477.268 339.036 477.268H367.257C370.393 477.268 372.943 474.718 372.943 471.582V439.762C372.943 436.627 370.393 434.076 367.257 434.076H339.036Z" fill="#3F3D56"/>
<path d="M364.405 452.523H341.152C340.166 452.523 339.364 451.72 339.364 450.734C339.364 449.748 340.166 448.945 341.152 448.945H364.405C365.392 448.945 366.194 449.748 366.194 450.734C366.194 451.72 365.392 452.523 364.405 452.523Z" fill="#6C63FF"/>
<path d="M364.405 462.421H341.152C340.166 462.421 339.364 461.618 339.364 460.632C339.364 459.646 340.166 458.844 341.152 458.844H364.405C365.392 458.844 366.194 459.646 366.194 460.632C366.194 461.618 365.392 462.421 364.405 462.421Z" fill="#6C63FF"/>
<path d="M364.405 442.624H341.152C340.166 442.624 339.364 441.822 339.364 440.836C339.364 439.85 340.166 439.047 341.152 439.047H364.405C365.392 439.047 366.194 439.85 366.194 440.836C366.194 441.822 365.392 442.624 364.405 442.624Z" fill="#6C63FF"/>
<path d="M121.063 265.118C116.655 265.141 112.618 266.158 109.474 267.831L67.4692 265.401L66.8975 285.423L109.569 285.732C112.73 287.372 116.778 288.347 121.186 288.323C131.256 288.27 139.392 283.032 139.358 276.624C139.324 270.216 131.133 265.064 121.063 265.118H121.063Z" fill="#FFB6B6"/>
<path d="M80.7057 119.299C80.7057 119.299 44.998 115.32 35.9019 137.472C28.9535 154.395 10.9018 220.348 0.771984 258.107C-2.93151 271.912 7.13684 285.582 21.4189 286.147L84.4932 288.645L88.1414 260.742L43.1006 253.551L68.2961 177.965L80.7057 119.299Z" fill="#6C63FF"/>
<path d="M172.373 26.2288C174.186 17.0487 163.061 13.4832 154.729 9.22364L147.655 3.24082C140.24 -0.550529 131.569 -1.03806 123.774 1.8981L99.4502 9.99494C88.4094 14.1542 84.5568 24.0552 78.1945 33.9911L67.5298 48.2287C61.2666 58.0097 63.1391 73.28 64.6078 84.8012L65.2233 89.629L59.3638 103.641L104.396 111.681L113.472 90.0566L107.808 79.7791C105.798 76.1324 106.603 71.578 109.74 68.8402L109.74 68.8402C121.024 58.9919 123.186 42.0897 123.186 42.0897L132.726 50.5025C139.659 53.1035 146.059 54.4447 151.935 54.5465C158.398 54.6585 164.226 53.2715 169.432 50.4128L170.349 64.352C167.658 80.8303 163.641 84.4538 145.546 97.0601L167.325 118.776L168.346 109.933C170.774 88.8966 181.264 74.2554 184.104 57.3301C186.067 45.6267 181.534 33.7725 172.373 26.2288H172.373V26.2288Z" fill="#2F2E41"/>
</g>
<defs>
<clipPath id="clip0_55_2720">
<rect width="601" height="478.168" fill="white"/>
</clipPath>
</defs>
</svg>
