<svg width="544" height="522" viewBox="0 0 544 522" fill="none" xmlns="http://www.w3.org/2000/svg">
<g clip-path="url(#clip0_31_71)">
<path d="M436.746 514.805L429.398 514.804L425.903 486.462L436.748 486.463L436.746 514.805Z" fill="#FFB6B6"/>
<path d="M411.571 514.638C411.342 515.023 411.222 516.267 411.222 516.715C411.222 518.092 412.338 519.209 413.716 519.209H436.471C437.411 519.209 438.173 518.447 438.173 517.508V516.56C438.173 516.56 439.298 513.713 436.981 510.203C436.981 510.203 434.1 512.951 429.796 508.647L428.527 506.348L419.339 513.067L414.246 513.694C413.132 513.831 412.144 513.673 411.571 514.638H411.571V514.638Z" fill="#2F2E41"/>
<path d="M464.583 514.805L457.235 514.804L453.74 486.462L464.585 486.462L464.583 514.805Z" fill="#FFB6B6"/>
<path d="M439.408 514.638C439.179 515.023 439.059 516.267 439.059 516.715C439.059 518.092 440.175 519.209 441.553 519.209H464.308C465.248 519.209 466.01 518.447 466.01 517.508V516.56C466.01 516.56 467.135 513.713 464.818 510.203C464.818 510.203 461.937 512.951 457.633 508.647L456.364 506.348L447.176 513.067L442.083 513.694C440.969 513.831 439.981 513.673 439.408 514.638H439.408V514.638Z" fill="#2F2E41"/>
<path d="M422.583 344.708L422.421 502.103H441.67L450.762 385.713L451.021 502.103L468.812 501.895L482.584 368.006C482.584 368.006 484.438 354.027 478.596 346.882C472.754 339.737 422.583 344.708 422.583 344.708V344.708V344.708Z" fill="#2F2E41"/>
<path d="M422.155 362.624C422.547 367.493 420.354 371.642 417.255 371.892C414.157 372.141 411.327 368.397 410.935 363.528C410.764 361.397 411.088 359.403 411.766 357.814L410.363 337.163L420.068 336.711L420.421 357.117C421.345 358.577 421.984 360.493 422.155 362.624V362.624Z" fill="#FFB6B6"/>
<path d="M314.936 123.723V45.3562C314.936 20.3066 294.629 6.21555e-09 269.58 6.21555e-09H103.546C78.4964 -0.000410225 58.1894 20.3059 58.189 45.3554V475.28C58.189 500.33 78.4956 520.637 103.545 520.637H269.577C294.627 520.637 314.934 500.33 314.934 475.28V179.505H314.934C316.511 179.505 317.791 178.226 317.791 176.649L317.793 126.58C317.793 125.002 316.514 123.723 314.936 123.723V123.723Z" fill="#3F3D56"/>
<path d="M306.418 41.5849V477.584C279.912 475.955 253.669 506.348 272.031 511.979H102.591C83.591 511.981 68.1858 496.583 68.1802 477.584V41.5849C68.1858 22.5861 83.5903 7.18824 102.589 7.19067H115.085C111.682 15.5591 139.146 18.2818 141.252 18.2844H228.03C237.064 18.273 258.858 9.14101 258.065 7.19068H272.024C291.015 7.19393 306.411 22.5868 306.418 41.5783L306.418 41.5849H306.418V41.5849Z" fill="white"/>
<path d="M263.633 346.188H113.065C111.526 346.187 110.279 344.939 110.277 343.4V306.051C110.279 304.512 111.526 303.265 113.065 303.263H263.633C265.172 303.265 266.419 304.512 266.421 306.051V343.401C266.418 344.939 265.171 346.186 263.633 346.188V346.188ZM113.065 304.378C112.142 304.379 111.393 305.128 111.392 306.051V343.401C111.393 344.325 112.142 345.073 113.065 345.074H263.633C264.556 345.073 265.305 344.325 265.306 343.401V306.051C265.305 305.128 264.556 304.379 263.633 304.378H113.065V304.378Z" fill="#E6E6E6"/>
<path d="M263.633 418.168H113.065C111.526 418.167 110.279 416.919 110.277 415.38V378.032C110.279 376.493 111.526 375.245 113.065 375.243H263.633C265.172 375.245 266.419 376.493 266.421 378.032V415.381C266.419 416.92 265.172 418.167 263.633 418.169V418.168ZM113.065 376.358C112.142 376.359 111.393 377.108 111.392 378.032V415.381C111.393 416.305 112.142 417.053 113.065 417.054H263.633C264.556 417.053 265.305 416.305 265.306 415.381V378.032C265.305 377.108 264.556 376.359 263.633 376.358H113.065V376.358Z" fill="#E6E6E6"/>
<path d="M542.442 522H1.41969C0.635133 522 0 521.657 0 521.235C0 520.812 0.635844 520.469 1.41969 520.469H542.442C543.226 520.469 543.862 520.812 543.862 521.235C543.862 521.657 543.227 522 542.442 522Z" fill="#E6E6E6"/>
<path d="M121.046 192.215C121.216 192.027 121.385 191.849 121.559 191.666C125.808 187.198 128.042 184.549 133.228 184.549C134.19 184.549 138.431 184.593 139.31 184.68C142.952 185.037 145.864 186.134 148.047 187.972C151.27 190.686 152.886 194.993 152.894 200.895C152.894 201.222 152.913 201.831 152.943 202.639C153.135 207.348 156.366 212.349 156.993 214.047C158.011 216.814 156.366 225.674 155.047 227.481C154.281 228.537 154.126 225.89 151.771 226.386C151.339 226.48 149.53 229.976 149.042 230.044C146.517 230.378 143.97 230.529 141.423 230.495C141.089 230.495 140.754 230.495 140.405 230.487H140.401C139.195 230.48 137.906 230.446 136.538 230.394C132.907 230.319 129.29 229.916 125.731 229.187H125.727C125.258 229.082 124.796 228.962 124.344 228.834L124.262 228.811L124.224 228.738C123.58 227.428 123.213 225.999 123.146 224.541C122.457 225.47 121.95 226.52 121.65 227.637L121.594 227.852L120.454 224.159C118.865 223.475 118.424 225.98 117.4 224.587C116.42 223.134 115.832 221.452 115.694 219.705C115.18 214.96 117.131 196.581 121.046 192.215L121.046 192.215Z" fill="#2F2E41"/>
<path d="M119.779 344.816H142.3L146.076 326.144L147.301 344.816H169.685C169.696 330.977 163.991 296.884 164.674 296.597C165.357 296.311 164.326 295.402 164.326 295.402L160.675 282.865L160.333 281.685H134.266C132.765 283.094 131.382 284.623 130.128 286.255C129.703 286.796 129.26 287.382 128.805 288.013C128.489 288.46 128.163 288.93 127.836 289.422C124.931 293.746 122.76 298.52 121.41 303.551V303.555C121.181 304.415 120.978 305.296 120.801 306.197V306.2C120.644 307.001 120.504 307.812 120.395 308.642C120.313 309.248 120.241 309.86 120.189 310.48C119.875 313.915 119.985 317.375 120.515 320.783L119.779 344.816Z" fill="#2F2E41"/>
<path d="M139.06 217.792C146.32 217.792 152.206 211.907 152.206 204.646C152.206 197.385 146.32 191.5 139.06 191.5C131.799 191.5 125.913 197.385 125.913 204.646C125.913 211.907 131.799 217.792 139.06 217.792Z" fill="#FFB6B6"/>
<path d="M130.421 188.307H143.292C144.848 187.945 146.453 187.832 148.045 187.972C150.002 188.121 151.871 188.844 153.419 190.051C155.722 191.899 156.993 194.846 156.993 198.347C156.986 199.467 157.216 200.941 156.993 202.038L155.428 199.459L155.014 202.038C153.827 202.342 154.134 202.402 152.942 202.639C152.656 202.695 152.367 202.752 152.077 202.804C150.514 203.094 149.023 203.647 149.023 203.647L147.248 203.443C146.139 202.423 145.953 199.904 145.36 198.519C145.245 198.923 145.102 199.636 144.962 200.407C144.604 202.393 142.871 203.847 140.853 203.848L140.819 203.848C135.881 203.845 135.883 200.022 131.089 198.84C130.773 198.767 133.996 221.113 133.685 221.03L123.811 214.683L125.085 193.643C125.089 190.697 127.476 188.31 130.421 188.307L130.421 188.307H130.421H130.421Z" fill="#2F2E41"/>
<path d="M116.929 187.141C114.559 191.986 116.283 193.075 121.128 195.445C125.973 197.815 132.105 200.569 134.475 195.723C136.845 190.878 132.694 186.919 127.849 184.549C128.883 180.533 121.955 178.693 118.592 184.736C119.748 185.702 117.087 188.326 117.659 189.719C116.479 188.766 118.525 186.94 117.019 187.125C116.989 187.13 116.961 187.135 116.929 187.141L116.929 187.141Z" fill="#2F2E41"/>
<path d="M263.633 418.168H113.065C111.526 418.167 110.279 416.919 110.277 415.38V378.032C110.279 376.493 111.526 375.245 113.065 375.243H263.633C265.172 375.245 266.419 376.493 266.421 378.032V415.381C266.419 416.92 265.172 418.167 263.633 418.169V418.168ZM113.065 376.358C112.142 376.359 111.393 377.108 111.392 378.032V415.381C111.393 416.305 112.142 417.053 113.065 417.054H263.633C264.556 417.053 265.305 416.305 265.306 415.381V378.032C265.305 377.108 264.556 376.359 263.633 376.358H113.065V376.358Z" fill="#E6E6E6"/>
<path d="M142.305 388.898C141.227 388.898 140.353 389.772 140.353 390.85C140.353 391.928 141.227 392.802 142.305 392.802H234.318C235.395 392.843 236.302 392.003 236.343 390.926C236.384 389.848 235.544 388.942 234.467 388.9C234.438 388.899 234.41 388.899 234.381 388.899H142.305V388.898V388.898Z" fill="#E6E6E6"/>
<path d="M142.305 400.609C141.227 400.609 140.353 401.483 140.353 402.561C140.353 403.639 141.227 404.513 142.305 404.513H234.318C235.395 404.554 236.302 403.714 236.343 402.637C236.384 401.559 235.544 400.652 234.467 400.611C234.438 400.61 234.41 400.609 234.381 400.61H142.305V400.609V400.609Z" fill="#E6E6E6"/>
<path d="M263.633 126.746H113.065C111.526 126.744 110.279 125.497 110.277 123.958V86.6093C110.279 85.0703 111.526 83.8232 113.065 83.8212H263.633C265.172 83.8232 266.419 85.0703 266.421 86.6093V123.959C266.419 125.498 265.172 126.745 263.633 126.747V126.746V126.746ZM113.065 84.9361C112.142 84.937 111.393 85.6856 111.392 86.6093V123.959C111.393 124.882 112.142 125.631 113.065 125.632H263.633C264.556 125.631 265.305 124.882 265.306 123.959V86.6093C265.305 85.6856 264.556 84.937 263.633 84.9361H113.065V84.9361Z" fill="#E6E6E6"/>
<path d="M159.63 97.4761C158.552 97.4761 157.678 98.35 157.678 99.428C157.678 100.506 158.552 101.38 159.63 101.38H251.642C252.72 101.421 253.627 100.581 253.668 99.5038C253.709 98.4264 252.869 97.5195 251.792 97.4782C251.763 97.4771 251.735 97.4766 251.706 97.4768H159.63V97.4761H159.63V97.4761Z" fill="#E6E6E6"/>
<path d="M159.63 109.187C158.552 109.187 157.678 110.061 157.678 111.139C157.678 112.217 158.552 113.09 159.63 113.09H251.642C252.72 113.132 253.627 112.292 253.668 111.214C253.709 110.137 252.869 109.23 251.792 109.189C251.763 109.188 251.735 109.187 251.706 109.187H159.63V109.187H159.63V109.187Z" fill="#E6E6E6"/>
<path d="M132.583 116.994C139.051 116.994 144.294 111.751 144.294 105.283C144.294 98.8153 139.051 93.5723 132.583 93.5723C126.116 93.5723 120.873 98.8153 120.873 105.283C120.873 111.751 126.116 116.994 132.583 116.994Z" fill="#E6E6E6"/>
<path d="M464.769 244.638L444.111 243.217L437.929 252.96L423.043 259.013V307.023C424.592 311.672 425.392 316.537 425.415 321.436C425.358 331.001 422.9 342.269 423.751 344.737C432.072 368.869 477.84 344.737 477.84 344.737L477.008 318.94L478.138 260.64L468.785 253.181L464.769 244.638V244.638Z" fill="#E6E6E6"/>
<path d="M426.414 257.735L426.17 257.776C421.571 258.555 417.651 261.552 415.695 265.788C413.179 271.229 409.669 350.084 409.669 350.084C409.669 350.084 419.052 349.372 423.722 351.604C423.722 351.604 425.831 339.991 424.568 337.971C423.305 335.951 425.67 315.754 425.67 315.754C430.805 302.329 428.778 280.235 426.414 257.735V257.735Z" fill="#E6E6E6"/>
<path d="M492.285 361.659C492.268 366.544 489.734 370.494 486.625 370.483C483.517 370.472 481.011 366.504 481.029 361.619C481.037 359.481 481.526 357.522 482.336 355.995L482.669 335.299L492.378 335.662L491.019 356.026C491.817 357.558 492.293 359.521 492.285 361.659H492.285V361.659Z" fill="#FFB6B6"/>
<path d="M473.845 259.161L474.09 259.189C478.722 259.736 482.786 262.531 484.953 266.661C487.737 271.968 494.999 339.524 494.766 340.757C494.534 341.99 495.223 350.551 495.223 350.551C495.223 350.551 485.815 350.313 481.264 352.778L477.509 317.071L473.845 259.161V259.161Z" fill="#E6E6E6"/>
<path d="M56.8536 133.322C55.6452 133.322 54.6626 134.304 54.6626 135.513V153.041C54.6626 154.249 55.6452 155.232 56.8536 155.232C58.062 155.232 59.0446 154.249 59.0446 153.041V135.513C59.0446 134.304 58.062 133.322 56.8536 133.322Z" fill="#3F3D56"/>
<path d="M56.8536 185.906C55.6452 185.906 54.6626 186.888 54.6626 188.097V222.057C54.6626 223.265 55.6452 224.248 56.8536 224.248C58.062 224.248 59.0446 223.265 59.0446 222.057V188.097C59.0446 186.888 58.062 185.906 56.8536 185.906Z" fill="#3F3D56"/>
<path d="M56.8536 234.107C55.6452 234.107 54.6626 235.09 54.6626 236.298V270.259C54.6626 271.467 55.6452 272.449 56.8536 272.449C58.062 272.449 59.0446 271.467 59.0446 270.259V236.298C59.0446 235.09 58.062 234.107 56.8536 234.107Z" fill="#3F3D56"/>
<path d="M206.647 202.77C210.693 202.77 213.972 199.49 213.972 195.445C213.972 191.399 210.693 188.119 206.647 188.119C202.601 188.119 199.321 191.399 199.321 195.445C199.321 199.49 202.601 202.77 206.647 202.77Z" fill="#E6E6E6"/>
<path d="M238.982 194.251C238.689 193.745 238.161 193.438 237.575 193.438C236.989 193.438 236.462 193.745 236.169 194.251L233.019 201.305C231.77 193.089 227.13 185.974 221.313 179.241C220.88 178.501 220.119 178.061 219.261 178.061C218.404 178.061 217.643 178.501 217.21 179.241C214.459 191.556 206.919 203.439 196.964 215.104C196.097 217.265 197.689 219.619 200.018 219.619H247.077C250.052 219.619 252.16 216.715 251.238 213.887C249.501 205.929 245.872 199.109 238.982 194.251V194.251Z" fill="#6C63FF"/>
<path d="M224.668 160.282C201.644 160.282 182.912 179.014 182.912 202.038C182.912 211.371 185.989 220 191.19 226.959C198.809 237.171 210.976 243.793 224.668 243.793C238.74 243.793 251.208 236.798 258.776 226.102C263.588 219.297 266.423 210.99 266.423 202.038C266.423 179.014 247.692 160.282 224.668 160.282V160.282ZM257.962 224.696C250.703 235.332 238.484 242.328 224.668 242.328C211.225 242.328 199.307 235.713 191.988 225.575C187.198 218.952 184.377 210.814 184.377 202.038C184.377 179.819 202.449 161.747 224.668 161.747C246.879 161.747 264.958 179.819 264.958 202.038C264.958 210.433 262.38 218.235 257.962 224.696V224.696Z" fill="#E6E6E6"/>
<path d="M182.771 216.021C184.683 213.176 187.701 211.857 189.511 213.074C191.321 214.291 191.238 217.583 189.326 220.427C188.488 221.673 187.44 222.625 186.373 223.201L178.119 235.152L172.593 231.159L181.316 219.802C181.447 218.597 181.934 217.266 182.771 216.021L182.771 216.021Z" fill="#FFB6B6"/>
<path d="M181.088 231.986L158.496 257.933L156.415 260.321L146.738 256.819L131.809 251.406H131.801L120.637 247.362C120.754 246.373 120.916 245.391 121.128 244.417C121.355 243.348 121.633 242.285 121.97 241.238C122.981 238.073 124.468 235.062 126.388 232.323C127.106 232.616 127.824 232.967 128.549 233.37L145.192 240.579L154.452 244.586L158.239 240.894L174.553 224.982L176.077 226.616L176.084 226.623L180.634 231.502L180.641 231.51L181.088 231.986H181.088Z" fill="#6C63FF"/>
<path d="M164.07 287.462L126.241 285.828C126.805 284.664 125.948 283.455 126.234 282.437C126.49 281.55 127.926 280.84 127.97 280.012C128.233 275.529 127.552 268.232 122.41 260.401C121.347 258.775 120.827 256.651 120.586 254.285C120.344 251.955 120.366 249.64 120.637 247.362C120.754 246.373 120.915 245.391 121.128 244.417C121.355 243.348 121.633 242.285 121.97 241.238C122.981 238.073 124.468 235.062 126.387 232.323C126.512 232.132 126.644 231.949 126.776 231.766C127.486 230.784 128.248 229.839 129.069 228.931C130.014 227.883 131.032 226.887 132.109 225.949L133.742 224.536L148.935 222.47L156.884 238.212L158.239 240.893L159.704 243.794C158.862 247.743 158.488 251.252 158.429 254.453C158.407 255.654 158.429 256.812 158.495 257.933C158.591 259.684 158.766 261.346 159.015 262.943C159.616 266.863 160.576 270.423 161.477 274.027C161.953 275.91 162.407 277.8 162.781 279.763C162.957 280.686 164.81 282.503 165.074 283.338C165.433 284.459 163.528 286.517 164.07 287.462V287.462Z" fill="#6C63FF"/>
<path d="M192.635 255.886C195.801 254.572 199.045 255.141 199.881 257.155C200.717 259.17 198.828 261.868 195.662 263.182C194.277 263.757 192.876 263.971 191.669 263.861L178.185 269.259L175.786 262.878L189.333 258.234C190.108 257.301 191.249 256.461 192.635 255.886L192.635 255.886Z" fill="#FFB6B6"/>
<path d="M121.97 241.238C121.633 242.285 121.355 243.348 121.128 244.417L146.181 278.239L161.477 274.027L182.414 268.262L182.304 267.61L181.205 261.017L180.839 258.812L159.016 262.943L153.25 264.035L143.5 249.04H143.493L137.86 240.373C135.193 235.209 131.142 232.235 126.776 231.766L121.97 241.238H121.97Z" fill="#6C63FF"/>
<path d="M263.632 349.499C266.076 349.499 268.057 347.518 268.057 345.074C268.057 342.63 266.076 340.649 263.632 340.649C261.189 340.649 259.208 342.63 259.208 345.074C259.208 347.518 261.189 349.499 263.632 349.499Z" fill="#E6E6E6"/>
<path d="M455.158 240.234C464.057 240.234 471.271 233.02 471.271 224.121C471.271 215.223 464.057 208.009 455.158 208.009C446.26 208.009 439.046 215.223 439.046 224.121C439.046 233.02 446.26 240.234 455.158 240.234Z" fill="#FFB6B6"/>
<path d="M466.371 237.913C468.612 236.16 468.829 232.817 470.741 230.709C473.938 227.187 475.441 223.396 473.766 219.221C472.285 215.529 472.6 210.99 469.409 208.614C470.976 208.047 465.554 208.615 467.227 206.394C468.899 204.174 465.733 205.051 465.942 204.142C466.152 203.233 463.302 201.567 461.45 203.381C461.172 203.654 460.929 203.96 460.726 204.293C458.841 201.469 453.687 200.365 450.801 202.157C447.969 203.915 449.773 206.407 446.727 205.884C445.296 205.638 442.206 205.439 441.228 206.513C440.31 207.673 443.209 210.039 441.736 209.899C440.308 209.629 436.652 214.313 436.652 214.313L435.296 212.65C433.142 214.055 433.849 217.718 436.018 219.097C436.833 219.615 438.719 220.908 439.666 221.026C440.433 221.121 441.071 217.445 441.864 217.363C442.696 217.277 442.704 219.767 443.502 219.571C446.509 218.834 449.613 218.578 452.7 218.811C457.416 219.477 460.7 225.111 458.953 229.545C460.765 227.766 464.116 229.242 465.055 231.601C465.993 233.96 463.419 234.874 462.723 237.316" fill="#2F2E41"/>
</g>
<defs>
<clipPath id="clip0_31_71">
<rect width="543.862" height="522" fill="white"/>
</clipPath>
</defs>
</svg>
