<svg width="399" height="402" viewBox="0 0 399 402" fill="none" xmlns="http://www.w3.org/2000/svg">
<g clip-path="url(#clip0_55_2768)">
<path d="M280.723 399.859H107.175C88.3605 399.859 73.0532 384.552 73.0532 365.737V34.1222C73.0532 15.3072 88.3605 0 107.175 0H280.723C299.538 0 314.845 15.3072 314.845 34.1222V365.737C314.845 384.552 299.538 399.859 280.723 399.859Z" fill="#3F3D56"/>
<path d="M314.845 121.979C314.049 121.979 313.402 122.626 313.402 123.422V169.615C313.402 170.411 314.049 171.059 314.845 171.059C315.642 171.059 316.289 170.411 316.289 169.615V123.422C316.289 122.626 315.642 121.979 314.845 121.979Z" fill="#3F3D56"/>
<path d="M311.597 34.1224V365.731C311.597 382.108 298.851 395.504 282.734 396.543H282.727C282.489 396.558 282.25 396.572 282.005 396.579C281.579 396.601 281.153 396.608 280.72 396.608C280.72 396.608 279.132 396.493 276.231 396.276C273.301 396.06 269.035 395.735 263.715 395.309C262.12 395.186 260.439 395.049 258.663 394.905C255.126 394.616 251.243 394.298 247.079 393.938C245.419 393.8 243.701 393.649 241.947 393.497C232.983 392.725 222.943 391.823 212.355 390.798C210.565 390.632 208.76 390.459 206.941 390.278C206.465 390.228 205.981 390.184 205.498 390.134C197.948 389.39 190.189 388.589 182.401 387.738C181.918 387.687 181.434 387.637 180.958 387.586C167.54 386.106 154.072 384.497 141.47 382.765C131.776 381.437 122.596 380.036 114.353 378.586C111.668 378.109 109.084 377.633 106.616 377.149C106.132 377.055 105.649 376.962 105.172 376.861C87.7271 373.367 76.3015 369.6 76.3015 365.731V34.1224C76.3015 17.0671 90.1234 3.24524 107.179 3.24524H125.613C128.557 3.24524 130.925 5.54045 131.177 8.47805C131.199 8.67294 131.221 8.86779 131.257 9.06268C131.791 12.0147 134.498 14.0717 137.5 14.0717H250.399C253.401 14.0717 256.108 12.0147 256.642 9.06268C256.678 8.86779 256.7 8.67294 256.722 8.47805C256.974 5.54045 259.342 3.24524 262.286 3.24524H280.72C297.776 3.24524 311.597 17.0671 311.597 34.1224Z" fill="white"/>
<path d="M165.93 335.622C166.039 336.105 166.132 336.582 166.226 337.065H114.194C110.831 337.065 107.973 339.267 106.984 342.305C106.789 341.988 106.587 341.67 106.392 341.352V341.345C106.45 340.84 106.507 340.335 106.572 339.829C107.604 331.666 109.625 323.647 112.592 315.968C116.785 316.69 120.777 313.875 121.506 309.681C121.888 307.444 121.267 305.141 119.802 303.402L119.542 301.258L119.81 300.782C125.548 290.886 138.222 287.523 148.11 293.261C152.809 295.982 156.251 300.45 157.688 305.69C160.416 315.585 163.808 325.575 165.93 335.622Z" fill="#FAFAFA"/>
<path d="M306.025 254.098L305.895 254.567C303.073 255.325 300.302 256.256 297.602 257.353C296.058 257.988 294.535 258.674 293.034 259.417C287.866 262.001 285.773 268.281 288.364 273.449C289.67 276.069 292.023 278.017 294.845 278.826L295.047 278.884L295.48 279.006C289.519 289.364 281.825 298.624 272.73 306.376C259.63 347.524 225.613 347.307 191.308 330.533L191.286 330.526C188.644 337.744 185.678 344.824 182.401 351.768C181.925 352.771 181.448 353.767 180.958 354.763V344.644C180.958 343.994 180.878 343.359 180.719 342.76C181.008 342.117 181.282 341.475 181.557 340.826C190.369 320.096 196.317 298.191 199.175 275.722C200.279 266.953 200.893 258.133 201.016 249.298C201.109 242.059 200.878 234.827 200.337 227.609C197.335 188.432 185.086 150.525 164.588 116.998C153.624 109.095 145.346 98.016 140.871 85.2624C139.24 80.6791 138.287 75.8794 138.034 71.0147C139.341 71.3612 145.569 51.592 144.718 50.2278C146.926 47.6511 150.412 46.6695 152.78 44.1866C164.545 31.8155 178.099 35.9441 183 55.374C197.464 65.1106 195.992 78.0591 184.949 89.3043C177.926 96.457 175.746 107.053 169.395 114.855C169.85 115.62 170.333 116.371 170.788 117.136C179.132 131.181 186.075 146.006 191.524 161.409C191.799 144.96 195.97 128.807 203.701 114.285C211.38 100.809 223.932 90.2281 235.206 79.1562C243.549 70.8415 257.061 70.8631 265.375 79.2068C269.367 83.2126 271.604 88.6403 271.604 94.2917L271.59 94.8402C270.045 95.4753 268.522 96.161 267.021 96.9045C261.853 99.4884 259.767 105.775 262.351 110.936C263.658 113.556 266.011 115.512 268.833 116.313L269.035 116.371C267.866 121.517 266.314 126.562 264.379 131.47C270.789 181.293 241.637 195.483 203.073 191.434C202.163 191.766 201.283 192.098 200.38 192.401C205.086 214.018 206.956 236.162 205.945 258.255C205.31 271.291 203.621 284.253 200.9 297.014L201.023 296.567C205.613 282.572 214.888 270.59 227.288 262.644C245.686 251.045 269.872 248.966 289.244 240.218C295.228 237.36 302.388 239.894 305.246 245.877C306.473 248.439 306.747 251.348 306.025 254.098L306.025 254.098Z" fill="#FAFAFA"/>
<path d="M72.3317 87.3339C71.5356 87.3339 70.8882 87.9813 70.8882 88.7774V100.326C70.8882 101.122 71.5356 101.769 72.3317 101.769C73.1278 101.769 73.7753 101.122 73.7753 100.326V88.7774C73.7753 87.9813 73.1278 87.3339 72.3317 87.3339Z" fill="#3F3D56"/>
<path d="M72.3317 121.979C71.5356 121.979 70.8882 122.626 70.8882 123.422V145.797C70.8882 146.593 71.5356 147.241 72.3317 147.241C73.1278 147.241 73.7753 146.593 73.7753 145.797V123.422C73.7753 122.626 73.1278 121.979 72.3317 121.979Z" fill="#3F3D56"/>
<path d="M72.3317 153.736C71.5356 153.736 70.8882 154.384 70.8882 155.18V177.555C70.8882 178.351 71.5356 178.998 72.3317 178.998C73.1278 178.998 73.7753 178.351 73.7753 177.555V155.18C73.7753 154.384 73.1278 153.736 72.3317 153.736Z" fill="#3F3D56"/>
<path d="M123.938 8.30042H98.6762C97.879 8.30042 97.2327 8.94671 97.2327 9.74395V10.4657C97.2327 11.263 97.879 11.9092 98.6762 11.9092H123.938C124.735 11.9092 125.382 11.263 125.382 10.4657V9.74395C125.382 8.94671 124.735 8.30042 123.938 8.30042Z" fill="#3F3D56"/>
<path d="M266.848 11.9093C268.442 11.9093 269.735 10.6167 269.735 9.0222C269.735 7.42772 268.442 6.13513 266.848 6.13513C265.253 6.13513 263.961 7.42772 263.961 9.0222C263.961 10.6167 265.253 11.9093 266.848 11.9093Z" fill="#3F3D56"/>
<path d="M274.787 11.9093C276.382 11.9093 277.674 10.6167 277.674 9.0222C277.674 7.42772 276.382 6.13513 274.787 6.13513C273.193 6.13513 271.9 7.42772 271.9 9.0222C271.9 10.6167 273.193 11.9093 274.787 11.9093Z" fill="#3F3D56"/>
<path d="M282.727 11.9093C284.321 11.9093 285.614 10.6167 285.614 9.0222C285.614 7.42772 284.321 6.13513 282.727 6.13513C281.132 6.13513 279.84 7.42772 279.84 9.0222C279.84 10.6167 281.132 11.9093 282.727 11.9093Z" fill="#3F3D56"/>
<path d="M258.908 44.7496H128.99C125.608 44.7496 122.855 41.9976 122.855 38.6146C122.855 35.2317 125.608 32.4796 128.99 32.4796H258.908C262.291 32.4796 265.044 35.2317 265.044 38.6146C265.044 41.9976 262.291 44.7496 258.908 44.7496Z" fill="#E6E6E6"/>
<path d="M131.156 41.5017C129.166 41.5017 127.547 39.8827 127.547 37.8929C127.547 35.9031 129.166 34.284 131.156 34.284C133.146 34.284 134.765 35.9031 134.765 37.8929C134.765 39.8827 133.146 41.5017 131.156 41.5017ZM131.156 35.7276C129.962 35.7276 128.99 36.6988 128.99 37.8929C128.99 39.0869 129.962 40.0582 131.156 40.0582C132.35 40.0582 133.321 39.0869 133.321 37.8929C133.321 36.6988 132.35 35.7276 131.156 35.7276Z" fill="white"/>
<path d="M136.708 43.9542C136.531 43.9542 136.354 43.8897 136.215 43.759L132.828 40.5847C132.536 40.3123 132.522 39.8555 132.794 39.5648C133.066 39.273 133.523 39.2585 133.814 39.5316L137.201 42.7059C137.493 42.9783 137.507 43.4351 137.235 43.7258C137.093 43.8777 136.9 43.9542 136.708 43.9542H136.708Z" fill="white"/>
<path d="M130.795 166.728C130.198 166.728 129.712 167.214 129.712 167.811V168.533C129.712 169.13 130.198 169.615 130.795 169.615H156.057C156.654 169.615 157.139 169.13 157.139 168.533V167.811C157.139 167.214 156.654 166.728 156.057 166.728H130.795Z" fill="#3F3D56"/>
<path d="M173.379 155.902H114.194C109.219 155.902 105.172 151.854 105.172 146.88V87.6948C105.172 82.7199 109.219 78.6727 114.194 78.6727H173.379C178.354 78.6727 182.401 82.7199 182.401 87.6948V146.88C182.401 151.854 178.354 155.902 173.379 155.902ZM114.194 80.1162C110.009 80.1162 106.616 83.5092 106.616 87.6948V146.88C106.616 151.065 110.009 154.458 114.194 154.458H155.652C169.628 154.458 180.958 143.128 180.958 129.152V87.6948C180.958 83.5092 177.565 80.1162 173.379 80.1162H114.194Z" fill="#F2F2F2"/>
<path d="M122.855 86.2512C118.279 86.2512 114.555 89.9746 114.555 94.5515V107.543C114.555 112.12 118.279 115.844 122.855 115.844H135.847C140.424 115.844 144.148 112.12 144.148 107.543V94.5515C144.148 89.9746 140.424 86.2512 135.847 86.2512H122.855Z" fill="#F2F2F2"/>
<path d="M156.778 86.2512C152.201 86.2512 148.478 89.9746 148.478 94.5515V107.543C148.478 112.12 152.201 115.844 156.778 115.844H169.77C174.347 115.844 178.07 112.12 178.07 107.543V94.5515C178.07 89.9746 174.347 86.2512 169.77 86.2512H156.778Z" fill="#F2F2F2"/>
<path d="M120.329 119.092C115.752 119.092 112.029 122.815 112.029 127.392V140.384C112.029 144.961 115.752 148.684 120.329 148.684H133.321C137.898 148.684 141.621 144.961 141.621 140.384V127.392C141.621 122.815 137.898 119.092 133.321 119.092H120.329Z" fill="#F2F2F2"/>
<path d="M231.12 166.728C230.523 166.728 230.038 167.214 230.038 167.811V168.533C230.038 169.13 230.523 169.615 231.12 169.615H256.382C256.979 169.615 257.465 169.13 257.465 168.533V167.811C257.465 167.214 256.979 166.728 256.382 166.728H231.12Z" fill="#3F3D56"/>
<path d="M130.795 295.203C130.198 295.203 129.712 295.688 129.712 296.285V297.007C129.712 297.604 130.198 298.09 130.795 298.09H156.057C156.654 298.09 157.139 297.604 157.139 297.007V296.285C157.139 295.688 156.654 295.203 156.057 295.203H130.795Z" fill="#3F3D56"/>
<path d="M173.379 284.376H114.194C109.219 284.376 105.172 280.329 105.172 275.354V216.169C105.172 211.194 109.219 207.147 114.194 207.147H173.379C178.354 207.147 182.401 211.194 182.401 216.169V275.354C182.401 280.329 178.354 284.376 173.379 284.376ZM114.194 208.591C110.009 208.591 106.616 211.984 106.616 216.169V275.354C106.616 279.54 110.009 282.933 114.194 282.933H156.374C169.951 282.933 180.958 271.926 180.958 258.348V216.169C180.958 211.984 177.565 208.591 173.379 208.591H114.194Z" fill="#F2F2F2"/>
<path d="M120.329 214.365C115.752 214.365 112.029 218.088 112.029 222.665V235.657C112.029 240.234 115.752 243.957 120.329 243.957H133.321C137.898 243.957 141.621 240.234 141.621 235.657V222.665C141.621 218.088 137.898 214.365 133.321 214.365H120.329Z" fill="#F2F2F2"/>
<path d="M154.252 214.365C149.675 214.365 145.952 218.088 145.952 222.665V235.657C145.952 240.234 149.675 243.957 154.252 243.957H167.244C171.821 243.957 175.544 240.234 175.544 235.657V222.665C175.544 218.088 171.821 214.365 167.244 214.365H154.252Z" fill="#F2F2F2"/>
<path d="M120.329 247.566C115.752 247.566 112.029 251.289 112.029 255.866V268.858C112.029 273.435 115.752 277.158 120.329 277.158H133.321C137.898 277.158 141.621 273.435 141.621 268.858V255.866C141.621 251.289 137.898 247.566 133.321 247.566H120.329Z" fill="#F2F2F2"/>
<path d="M231.12 295.203C230.523 295.203 230.038 295.688 230.038 296.285V297.007C230.038 297.604 230.523 298.09 231.12 298.09H256.382C256.979 298.09 257.465 297.604 257.465 297.007V296.285C257.465 295.688 256.979 295.203 256.382 295.203H231.12Z" fill="#3F3D56"/>
<path d="M273.705 284.376H214.52C209.545 284.376 205.498 280.329 205.498 275.354V216.169C205.498 211.194 209.545 207.147 214.52 207.147H273.705C278.679 207.147 282.727 211.194 282.727 216.169V275.354C282.727 280.329 278.679 284.376 273.705 284.376ZM214.52 208.591C210.334 208.591 206.941 211.984 206.941 216.169V275.354C206.941 279.54 210.334 282.933 214.52 282.933H257.174C270.489 282.933 281.283 272.138 281.283 258.823V216.169C281.283 211.984 277.89 208.591 273.705 208.591H214.52Z" fill="#F2F2F2"/>
<path d="M220.655 214.365C216.078 214.365 212.354 218.088 212.354 222.665V235.657C212.354 240.234 216.078 243.957 220.655 243.957H233.647C238.224 243.957 241.947 240.234 241.947 235.657V222.665C241.947 218.088 238.224 214.365 233.647 214.365H220.655Z" fill="#F2F2F2"/>
<path d="M254.578 214.365C250.001 214.365 246.278 218.088 246.278 222.665V235.657C246.278 240.234 250.001 243.957 254.578 243.957H267.57C272.147 243.957 275.87 240.234 275.87 235.657V222.665C275.87 218.088 272.147 214.365 267.57 214.365H254.578Z" fill="#F2F2F2"/>
<path d="M220.655 247.566C216.078 247.566 212.354 251.289 212.354 255.866V268.858C212.354 273.435 216.078 277.158 220.655 277.158H233.647C238.224 277.158 241.947 273.435 241.947 268.858V255.866C241.947 251.289 238.224 247.566 233.647 247.566H220.655Z" fill="#F2F2F2"/>
<path d="M182.401 344.641V387.738C181.918 387.687 181.434 387.637 180.958 387.586V344.641C180.958 343.991 180.878 343.356 180.72 342.757C179.882 339.487 176.909 337.062 173.379 337.062H114.194C110.831 337.062 107.973 339.264 106.984 342.302C106.746 343.038 106.616 343.825 106.616 344.641V377.149C106.132 377.055 105.649 376.962 105.172 376.861V344.641C105.172 342.873 105.685 341.22 106.573 339.827C108.175 337.301 110.99 335.619 114.194 335.619H173.379C176.988 335.619 180.106 337.748 181.557 340.823C182.098 341.978 182.401 343.277 182.401 344.641V344.641Z" fill="#F2F2F2"/>
<path d="M133.321 342.839H120.329C115.753 342.839 112.029 346.564 112.029 351.14V364.131C112.029 368.707 115.753 372.432 120.329 372.432H133.321C137.897 372.432 141.621 368.707 141.621 364.131V351.14C141.621 346.564 137.897 342.839 133.321 342.839Z" fill="#F2F2F2"/>
<path d="M167.244 342.839H154.252C149.676 342.839 145.952 346.564 145.952 351.14V364.131C145.952 368.707 149.676 372.432 154.252 372.432H167.244C171.82 372.432 175.544 368.707 175.544 364.131V351.14C175.544 346.564 171.82 342.839 167.244 342.839Z" fill="#F2F2F2"/>
<path d="M133.321 376.038H120.329C117.983 376.038 115.861 377.019 114.353 378.586C122.596 380.036 131.776 381.437 141.47 382.765C140.734 378.939 137.363 376.038 133.321 376.038Z" fill="#F2F2F2"/>
<path d="M282.727 344.641V396.579H281.283V344.641C281.283 340.462 277.884 337.062 273.705 337.062H214.52C210.341 337.062 206.941 340.462 206.941 344.641V390.278C206.465 390.228 205.981 390.184 205.498 390.134V344.641C205.498 339.668 209.547 335.619 214.52 335.619H273.705C278.678 335.619 282.727 339.668 282.727 344.641Z" fill="#F2F2F2"/>
<path d="M233.647 342.839H220.655C216.079 342.839 212.354 346.564 212.354 351.14V364.131C212.354 368.707 216.079 372.432 220.655 372.432H233.647C238.223 372.432 241.947 368.707 241.947 364.131V351.14C241.947 346.564 238.223 342.839 233.647 342.839Z" fill="#F2F2F2"/>
<path d="M267.57 342.839H254.578C250.002 342.839 246.278 346.564 246.278 351.14V364.131C246.278 368.707 250.002 372.432 254.578 372.432H267.57C272.146 372.432 275.87 368.707 275.87 364.131V351.14C275.87 346.564 272.146 342.839 267.57 342.839Z" fill="#F2F2F2"/>
<path d="M233.647 376.038H220.655C216.079 376.038 212.355 379.762 212.355 384.338V390.798C222.943 391.823 232.983 392.725 241.947 393.497V384.338C241.947 379.762 238.223 376.038 233.647 376.038Z" fill="#F2F2F2"/>
<path d="M149.365 247.442C147.412 247.442 145.823 249.032 145.823 250.985V256.531C145.823 258.484 147.412 260.073 149.365 260.073H154.911C156.864 260.073 158.453 258.484 158.453 256.531V250.985C158.453 249.032 156.864 247.442 154.911 247.442H149.365Z" fill="#F2F2F2"/>
<path d="M166.688 247.442C164.734 247.442 163.145 249.032 163.145 250.985V256.531C163.145 258.484 164.734 260.073 166.688 260.073H172.233C174.187 260.073 175.776 258.484 175.776 256.531V250.985C175.776 249.032 174.187 247.442 172.233 247.442H166.688Z" fill="#F2F2F2"/>
<path d="M149.365 120.412C147.412 120.412 145.823 122.001 145.823 123.954V129.5C145.823 131.453 147.412 133.042 149.365 133.042H154.911C156.864 133.042 158.453 131.453 158.453 129.5V123.954C158.453 122.001 156.864 120.412 154.911 120.412H149.365Z" fill="#F2F2F2"/>
<path d="M166.688 120.412C164.734 120.412 163.145 122.001 163.145 123.954V129.5C163.145 131.453 164.734 133.042 166.688 133.042H172.233C174.187 133.042 175.776 131.453 175.776 129.5V123.954C175.776 122.001 174.187 120.412 172.233 120.412H166.688Z" fill="#F2F2F2"/>
<path d="M255.365 376.041H249.821C247.865 376.041 246.278 377.628 246.278 379.584V385.128C246.278 387.084 247.865 388.671 249.821 388.671H255.365C257.321 388.671 258.909 387.084 258.909 385.128V379.584C258.909 377.628 257.321 376.041 255.365 376.041Z" fill="#F2F2F2"/>
<path d="M272.687 376.041H267.144C265.188 376.041 263.6 377.628 263.6 379.584V385.128C263.6 387.084 265.188 388.671 267.144 388.671H272.687C274.643 388.671 276.231 387.084 276.231 385.128V379.584C276.231 377.628 274.643 376.041 272.687 376.041Z" fill="#F2F2F2"/>
<path d="M255.365 392.638H249.822C248.717 392.638 247.728 393.144 247.079 393.938C251.243 394.298 255.127 394.616 258.663 394.905C258.158 393.577 256.873 392.638 255.365 392.638Z" fill="#F2F2F2"/>
<path d="M272.687 392.638H267.144C265.491 392.638 264.098 393.772 263.716 395.309C269.035 395.735 273.301 396.06 276.231 396.276V396.182C276.231 394.226 274.643 392.638 272.687 392.638Z" fill="#F2F2F2"/>
<path d="M287.217 87.7263L289.647 99.8434L282.918 102.197L280.805 89.2949C280.496 89.0423 280.218 88.7413 279.984 88.3923C278.712 86.4943 279.22 83.9249 281.118 82.6534C283.016 81.3819 285.586 81.8898 286.857 83.7878C287.668 84.9982 287.752 86.4805 287.217 87.7263V87.7263Z" fill="#A0616A"/>
<path d="M322.401 167.065L332.249 156.457L300.677 124.162C300.677 124.162 299.388 122.949 300.259 122.781C301.13 122.613 299.812 121.307 299.812 121.307C299.812 121.307 297.756 119.354 299.405 119.964C301.055 120.573 298.964 118.507 298.964 118.507L291.57 94.0978L290.258 89.7684L279.215 96.3598C279.215 96.3598 279.313 97.1977 279.508 98.6269C280.494 105.838 283.955 128.102 289.798 133.76C296.8 140.539 322.401 167.065 322.401 167.065L322.401 167.065Z" fill="#6C63FF"/>
<path d="M294.615 393.128L287.659 393.127L284.35 366.297L294.617 366.297L294.615 393.128Z" fill="#A0616A"/>
<path d="M294.86 400.385L273.469 400.384V400.113C273.469 395.515 277.197 391.788 281.795 391.787H281.795L285.703 388.823L292.993 391.788L294.86 391.788L294.86 400.385Z" fill="#2F2E41"/>
<path d="M351.363 386.31L344.785 388.572L332.929 364.276L342.637 360.938L351.363 386.31Z" fill="#A0616A"/>
<path d="M353.954 393.092L333.726 400.049L333.638 399.793C332.143 395.445 334.456 390.708 338.804 389.212L338.804 389.212L341.535 385.138L349.393 385.57L351.159 384.963L353.954 393.092Z" fill="#2F2E41"/>
<path d="M338.382 213.582H291.734C291.734 213.582 289.464 233.778 288.622 232.552C287.779 231.326 288.023 233.107 288.262 234.743C288.501 236.379 286.125 237.388 287.674 238.327C289.222 239.266 288.666 241.007 287.14 241.58C285.614 242.153 286.335 246.483 286.335 246.483L278.396 324.014L284.892 382.176H295.718L310.154 276.076V330.208L339.024 378.567L348.407 374.958L336.859 322.991L345.52 226.996L338.382 213.582V213.582Z" fill="#2F2E41"/>
<path d="M346.242 219.056L342.677 222.968L288.501 224.83L286.335 219.778L297.162 195.238L308.71 145.436L313.763 134.61V133.419C313.763 133.253 313.724 133.089 313.649 132.94C313.339 132.319 313.691 131.572 314.367 131.416L314.484 129.557L313.041 130.279L322.424 125.948L330.147 126.706L330.363 127.392L331.973 128.626C338.678 133.751 342.547 141.755 342.395 150.192L341.911 177.194L346.242 219.056Z" fill="#3F3D56"/>
<path d="M314.673 122.324C314.995 122.398 315.317 122.462 315.639 122.512C316.639 122.675 317.64 122.725 318.615 122.665C321.577 122.512 324.371 121.417 326.63 119.614C329.017 117.712 330.8 115.023 331.548 111.823C333.306 104.27 328.606 96.7112 321.052 94.9529C313.608 93.2143 306.163 97.7514 304.262 105.112C304.232 105.226 304.202 105.335 304.177 105.448C302.419 113.007 307.114 120.56 314.673 122.324H314.673Z" fill="#A0616A"/>
<path d="M293.33 219.787L300.557 209.763L306.86 213.092L298.842 223.419C298.867 223.818 298.836 224.226 298.739 224.635C298.213 226.858 295.985 228.234 293.761 227.708C291.538 227.182 290.162 224.954 290.688 222.731C291.024 221.313 292.053 220.242 293.33 219.787Z" fill="#A0616A"/>
<path d="M327.539 140.023H313.064L310.876 185.133C310.876 185.133 310.864 186.904 310.148 186.379C309.432 185.855 309.372 187.709 309.372 187.709C309.372 187.709 309.339 190.545 308.664 188.922C307.989 187.299 307.897 190.236 307.897 190.236L295.038 212.262L292.758 216.169L305.102 219.778C305.102 219.778 305.649 219.136 306.564 218.021C311.178 212.393 325.14 194.709 325.311 186.577C325.516 176.833 327.539 140.023 327.539 140.023Z" fill="#6C63FF"/>
<path d="M308.71 150.488C308.71 150.488 320.258 135.331 330.363 149.767L328.198 131.001L317.154 128.967C316.506 128.897 315.947 129.417 315.969 130.068L308.71 150.488Z" fill="#3F3D56"/>
<path d="M313.041 135.331L313.005 132.834L312.673 132.3L313.041 131.723L313.099 131.593L314.484 125.948L326.827 121.618L330.147 126.706C325.159 130.07 324.026 135.454 313.041 135.331Z" fill="#6C63FF"/>
<path d="M324.693 120.238L323.489 111.206C323.37 110.309 322.204 110.039 321.702 110.791H319.537L317.372 103.574C317.372 103.574 316.546 106.841 315.15 106.04C313.613 105.158 311.689 105.6 309.98 106.066L310.76 103.993L307.284 104.943L307.751 103.472L305.591 104.164C305.962 103.887 305.627 103.23 305.17 103.159C304.712 103.088 302.936 105.017 302.215 105.017C301.62 105.017 301.034 104.54 300.575 104.162C299.356 103.159 298.749 98.1236 299.327 97.0777C300.401 95.1381 302.837 95.783 304.38 94.1907C304.724 93.8358 308.361 93.8181 308.71 93.4689C309.142 93.0383 312.259 91.4976 312.868 91.4922C313.477 91.4868 314.054 92.249 313.657 92.7119C313.94 91.7938 315.121 91.557 316.082 91.5756C316.758 91.5886 318.864 89.8006 319.537 89.8601C320.987 89.9882 321.005 91.964 322.455 92.0922C323.626 92.1957 325.016 92.45 325.477 93.5315C325.703 94.06 325.635 94.6595 325.652 95.2337C325.669 95.808 325.819 96.4484 326.308 96.7498C326.734 97.0124 327.304 96.9278 327.733 96.6708C328.162 96.4137 328.482 96.0119 328.792 95.6189C329.261 97.135 331.894 100.816 332.363 102.333C332.837 103.866 333.313 105.407 333.554 106.994C334.291 111.832 329.082 116.973 325.729 120.538" fill="#2F2E41"/>
<path d="M214.52 79.3944C209.943 79.3944 206.219 83.1178 206.219 87.6948V146.88C206.219 151.457 209.943 155.18 214.52 155.18H273.705C278.282 155.18 282.005 151.457 282.005 146.88V87.6948C282.005 83.1178 278.282 79.3944 273.705 79.3944H214.52Z" fill="#F2F2F2"/>
<path d="M220.655 85.8904C216.078 85.8904 212.354 89.6137 212.354 94.1907V107.182C212.354 111.759 216.078 115.483 220.655 115.483H233.647C238.224 115.483 241.947 111.759 241.947 107.182V94.1907C241.947 89.6137 238.224 85.8904 233.647 85.8904H220.655Z" fill="#6C63FF"/>
<path d="M254.578 85.8904C250.001 85.8904 246.278 89.6137 246.278 94.1907V107.182C246.278 111.759 250.001 115.483 254.578 115.483H267.57C272.147 115.483 275.87 111.759 275.87 107.182V94.1907C275.87 89.6137 272.147 85.8904 267.57 85.8904H254.578Z" fill="#6C63FF"/>
<path d="M220.655 119.092C216.078 119.092 212.354 122.815 212.354 127.392V140.384C212.354 144.961 216.078 148.684 220.655 148.684H233.647C238.224 148.684 241.947 144.961 241.947 140.384V127.392C241.947 122.815 238.224 119.092 233.647 119.092H220.655Z" fill="white"/>
<path d="M249.82 119.092C247.867 119.092 246.278 120.681 246.278 122.634V128.18C246.278 130.133 247.867 131.723 249.82 131.723H255.366C257.319 131.723 258.909 130.133 258.909 128.18V122.634C258.909 120.681 257.319 119.092 255.366 119.092H249.82Z" fill="white"/>
<path d="M267.143 119.092C265.189 119.092 263.6 120.681 263.6 122.634V128.18C263.6 130.133 265.189 131.723 267.143 131.723H272.688C274.642 131.723 276.231 130.133 276.231 128.18V122.634C276.231 120.681 274.642 119.092 272.688 119.092H267.143Z" fill="white"/>
<path d="M249.82 135.692C247.867 135.692 246.278 137.281 246.278 139.235V144.78C246.278 146.734 247.867 148.323 249.82 148.323H255.366C257.319 148.323 258.909 146.734 258.909 144.78V139.235C258.909 137.281 257.319 135.692 255.366 135.692H249.82Z" fill="white"/>
<path d="M267.143 135.692C265.189 135.692 263.6 137.281 263.6 139.235V144.78C263.6 146.734 265.189 148.323 267.143 148.323H272.688C274.642 148.323 276.231 146.734 276.231 144.78V139.235C276.231 137.281 274.642 135.692 272.688 135.692H267.143Z" fill="white"/>
<path d="M359.838 388.801C361.329 388.894 362.153 387.042 361.025 385.962L360.913 385.516C360.927 385.48 360.942 385.444 360.957 385.409C362.465 381.813 367.576 381.838 369.071 385.439C370.398 388.635 372.087 391.837 372.503 395.216C372.69 396.708 372.606 398.227 372.275 399.691C375.384 392.899 377.021 385.482 377.021 378.023C377.021 376.149 376.918 374.275 376.708 372.406C376.536 370.877 376.298 369.357 375.99 367.851C374.326 359.712 370.723 351.959 365.525 345.484C363.026 344.118 360.942 341.983 359.684 339.424C359.231 338.5 358.877 337.508 358.709 336.496C358.994 336.533 359.781 332.202 359.567 331.937C359.963 331.335 360.673 331.036 361.105 330.45C363.258 327.531 366.224 328.041 367.772 332.007C371.079 333.676 371.111 336.444 369.082 339.107C367.791 340.8 367.613 343.092 366.48 344.906C366.597 345.055 366.718 345.199 366.835 345.349C368.972 348.09 370.82 351.036 372.379 354.132C371.938 350.691 372.588 346.547 373.697 343.876C374.959 340.832 377.324 338.268 379.406 335.637C381.908 332.476 387.038 333.855 387.479 337.862C387.483 337.901 387.487 337.94 387.491 337.978C387.182 338.153 386.879 338.338 386.583 338.534C384.894 339.651 385.478 342.268 387.478 342.577L387.524 342.584C387.412 343.698 387.221 344.803 386.941 345.889C389.613 356.222 383.845 359.985 375.608 360.155C375.426 360.248 375.249 360.341 375.067 360.43C375.902 362.779 376.569 365.189 377.063 367.632C377.506 369.79 377.813 371.972 377.986 374.163C378.2 376.928 378.182 379.706 377.948 382.466L377.962 382.368C378.554 379.328 380.205 376.489 382.601 374.522C386.17 371.59 391.214 370.51 395.065 368.153C396.918 367.019 399.294 368.485 398.97 370.634L398.954 370.737C398.381 370.97 397.822 371.24 397.281 371.543C396.972 371.718 396.668 371.903 396.372 372.099C394.684 373.216 395.267 375.833 397.268 376.142L397.314 376.149C397.346 376.154 397.374 376.158 397.407 376.163C396.423 378.499 395.053 380.666 393.337 382.536C391.666 391.556 384.491 392.412 376.816 389.785H376.811C375.972 393.44 374.746 397.011 373.17 400.414H360.164C360.117 400.269 360.075 400.12 360.033 399.976C361.236 400.05 362.448 399.98 363.632 399.761C362.667 398.577 361.702 397.384 360.737 396.2C360.714 396.176 360.695 396.153 360.677 396.13C360.187 395.524 359.693 394.922 359.203 394.316L359.203 394.315C359.172 392.455 359.395 390.601 359.837 388.801L359.838 388.801Z" fill="#F2F2F2"/>
<path d="M0 400.452C0 400.929 0.382558 401.311 0.858946 401.311H398.04C398.516 401.311 398.899 400.929 398.899 400.452C398.899 399.976 398.516 399.594 398.04 399.594H0.858946C0.382558 399.594 0 399.976 0 400.452Z" fill="#CCCCCC"/>
</g>
<defs>
<clipPath id="clip0_55_2768">
<rect width="399" height="401.311" fill="white"/>
</clipPath>
</defs>
</svg>
